<svg width="167" height="115" viewBox="0 0 167 115" fill="none" xmlns="http://www.w3.org/2000/svg">
    <defs>
        <filter id="filter0_bd_292_6848" x="0" y="0" width="167" height="115" filterUnits="userSpaceOnUse" color-interpolation-filters="sRGB">
            <feFlood flood-opacity="0" result="BackgroundImageFix"/>
            <feGaussianBlur in="BackgroundImageFix" stdDeviation="2"/>
            <feComposite in2="SourceAlpha" operator="in" result="effect1_backgroundBlur_292_6848"/>
            <feColorMatrix in="SourceAlpha" type="matrix" values="0 0 0 0 0 0 0 0 0 0 0 0 0 0 0 0 0 0 127 0" result="hardAlpha"/>
            <feOffset dx="1" dy="2"/>
            <feGaussianBlur stdDeviation="6.5"/>
            <feComposite in2="hardAlpha" operator="out"/>
            <feColorMatrix type="matrix" values="0 0 0 0 0.754167 0 0 0 0 0.754167 0 0 0 0 0.754167 0 0 0 0.2 0"/>
            <feBlend mode="normal" in2="effect1_backgroundBlur_292_6848" result="effect2_dropShadow_292_6848"/>
            <feBlend mode="normal" in="SourceGraphic" in2="effect2_dropShadow_292_6848" result="shape"/>
        </filter>
        <linearGradient id="paint0_linear_292_6848" x1="12" y1="11" x2="153" y2="100" gradientUnits="userSpaceOnUse">
            <stop stop-color="#F4F4F4"/>
            <stop offset="1" stop-color="#E3E3E3" stop-opacity="0"/>
        </linearGradient>
        <linearGradient id="paint1_linear_292_6848" x1="12" y1="11" x2="153" y2="100" gradientUnits="userSpaceOnUse">
            <stop stop-color="#ECECEC"/>
            <stop offset="1" stop-color="#D0D0D0" stop-opacity="0"/>
        </linearGradient>
    </defs>
    <g filter="url(#filter0_bd_292_6848)">
<mask id="path-1-inside-1_292_6848" fill="white">
<path fill-rule="evenodd" clip-rule="evenodd" d="M98.6205 29.0387C95.0897 18.5523 85.1768 11 73.5 11C60.884 11 50.3271 19.816 47.6538 31.6235C44.8009 30.5734 41.7174 30 38.5 30C23.8645 30 12 41.8645 12 56.5C12 71.1355 23.8645 83 38.5 83C45.2769 83 51.4597 80.4561 56.1455 76.2712C61.1633 90.1116 74.4269 100 90 100C106.079 100 119.695 89.4594 124.317 74.9114C125.037 74.9701 125.765 75 126.5 75C141.136 75 153 63.1355 153 48.5C153 33.8645 141.136 22 126.5 22C118.227 22 110.839 25.7914 105.979 31.7316C103.657 30.5796 101.193 29.6709 98.6205 29.0387Z"/>
</mask>
<path fill-rule="evenodd" clip-rule="evenodd" d="M98.6205 29.0387C95.0897 18.5523 85.1768 11 73.5 11C60.884 11 50.3271 19.816 47.6538 31.6235C44.8009 30.5734 41.7174 30 38.5 30C23.8645 30 12 41.8645 12 56.5C12 71.1355 23.8645 83 38.5 83C45.2769 83 51.4597 80.4561 56.1455 76.2712C61.1633 90.1116 74.4269 100 90 100C106.079 100 119.695 89.4594 124.317 74.9114C125.037 74.9701 125.765 75 126.5 75C141.136 75 153 63.1355 153 48.5C153 33.8645 141.136 22 126.5 22C118.227 22 110.839 25.7914 105.979 31.7316C103.657 30.5796 101.193 29.6709 98.6205 29.0387Z" fill="url(#paint0_linear_292_6848)" shape-rendering="crispEdges"/>
<path d="M98.6205 29.0387L97.6727 29.3578L97.8481 29.8786L98.3818 30.0098L98.6205 29.0387ZM47.6538 31.6235L47.3084 32.562L48.3776 32.9555L48.6292 31.8443L47.6538 31.6235ZM56.1455 76.2712L57.0857 75.9303L56.5819 74.5407L55.4794 75.5253L56.1455 76.2712ZM124.317 74.9114L124.398 73.9147L123.605 73.85L123.364 74.6086L124.317 74.9114ZM105.979 31.7316L105.534 32.6274L106.248 32.9816L106.753 32.3648L105.979 31.7316ZM99.5682 28.7196C95.9046 17.8386 85.619 10 73.5 10V12C84.7346 12 94.2748 19.2659 97.6727 29.3578L99.5682 28.7196ZM73.5 10C60.4067 10 49.4527 19.1495 46.6785 31.4027L48.6292 31.8443C51.2015 20.4826 61.3613 12 73.5 12V10ZM47.9993 30.6851C45.0373 29.5948 41.837 29 38.5 29V31C41.5978 31 44.5644 31.5519 47.3084 32.562L47.9993 30.6851ZM38.5 29C23.3122 29 11 41.3122 11 56.5H13C13 42.4167 24.4167 31 38.5 31V29ZM11 56.5C11 71.6878 23.3122 84 38.5 84V82C24.4167 82 13 70.5833 13 56.5H11ZM38.5 84C45.532 84 51.9497 81.3593 56.8117 77.017L55.4794 75.5253C50.9698 79.5529 45.0219 82 38.5 82V84ZM90 99C74.861 99 61.9646 89.3878 57.0857 75.9303L55.2054 76.612C60.3621 90.8355 73.9927 101 90 101V99ZM123.364 74.6086C118.87 88.7535 105.63 99 90 99V101C106.527 101 120.52 90.1653 125.27 75.2141L123.364 74.6086ZM126.5 74C125.792 74 125.091 73.9712 124.398 73.9147L124.235 75.908C124.982 75.969 125.738 76 126.5 76V74ZM152 48.5C152 62.5833 140.583 74 126.5 74V76C141.688 76 154 63.6878 154 48.5H152ZM126.5 23C140.583 23 152 34.4167 152 48.5H154C154 33.3122 141.688 21 126.5 21V23ZM106.753 32.3648C111.431 26.6468 118.539 23 126.5 23V21C117.914 21 110.246 24.936 105.205 31.0984L106.753 32.3648ZM98.3818 30.0098C100.882 30.6243 103.277 31.5076 105.534 32.6274L106.423 30.8358C104.037 29.6517 101.504 28.7175 98.8591 28.0676L98.3818 30.0098Z" fill="url(#paint1_linear_292_6848)" mask="url(#path-1-inside-1_292_6848)"/>
</g>

</svg>
