<svg width="171" height="111" viewBox="0 0 171 111" fill="none" xmlns="http://www.w3.org/2000/svg">
    <defs>
        <filter id="filter0_bd_292_6855" x="27.5" y="0" width="143.5" height="100.167" filterUnits="userSpaceOnUse" color-interpolation-filters="sRGB">
            <feFlood flood-opacity="0" result="BackgroundImageFix"/>
            <feGaussianBlur in="BackgroundImageFix" stdDeviation="2"/>
            <feComposite in2="SourceAlpha" operator="in" result="effect1_backgroundBlur_292_6855"/>
            <feColorMatrix in="SourceAlpha" type="matrix" values="0 0 0 0 0 0 0 0 0 0 0 0 0 0 0 0 0 0 127 0" result="hardAlpha"/>
            <feOffset dx="1" dy="2"/>
            <feGaussianBlur stdDeviation="6.5"/>
            <feComposite in2="hardAlpha" operator="out"/>
            <feColorMatrix type="matrix" values="0 0 0 0 0.754167 0 0 0 0 0.754167 0 0 0 0 0.754167 0 0 0 0.2 0"/>
            <feBlend mode="normal" in2="effect1_backgroundBlur_292_6855" result="effect2_dropShadow_292_6855"/>
            <feBlend mode="normal" in="SourceGraphic" in2="effect2_dropShadow_292_6855" result="shape"/>
        </filter>
        <filter id="filter1_bd_292_6855" x="0" y="10" width="143.5" height="100.167" filterUnits="userSpaceOnUse" color-interpolation-filters="sRGB">
            <feFlood flood-opacity="0" result="BackgroundImageFix"/>
            <feGaussianBlur in="BackgroundImageFix" stdDeviation="2"/>
            <feComposite in2="SourceAlpha" operator="in" result="effect1_backgroundBlur_292_6855"/>
            <feColorMatrix in="SourceAlpha" type="matrix" values="0 0 0 0 0 0 0 0 0 0 0 0 0 0 0 0 0 0 127 0" result="hardAlpha"/>
            <feOffset dx="1" dy="2"/>
            <feGaussianBlur stdDeviation="6.5"/>
            <feComposite in2="hardAlpha" operator="out"/>
            <feColorMatrix type="matrix" values="0 0 0 0 0.754167 0 0 0 0 0.754167 0 0 0 0 0.754167 0 0 0 0.2 0"/>
            <feBlend mode="normal" in2="effect1_backgroundBlur_292_6855" result="effect2_dropShadow_292_6855"/>
            <feBlend mode="normal" in="SourceGraphic" in2="effect2_dropShadow_292_6855" result="shape"/>
        </filter>
        <linearGradient id="paint0_linear_292_6855" x1="39.5" y1="11" x2="157" y2="85.1667" gradientUnits="userSpaceOnUse">
            <stop stop-color="#D9D9D9"/>
            <stop offset="1" stop-color="#C5C5C5" stop-opacity="0"/>
        </linearGradient>
        <linearGradient id="paint1_linear_292_6855" x1="39.5" y1="11" x2="157" y2="85.1667" gradientUnits="userSpaceOnUse">
            <stop stop-color="#CCCCCC"/>
            <stop offset="1" stop-color="#D0D0D0" stop-opacity="0"/>
        </linearGradient>
        <linearGradient id="paint2_linear_292_6855" x1="12" y1="21" x2="129.5" y2="95.1667" gradientUnits="userSpaceOnUse">
            <stop stop-color="#F4F4F4"/>
            <stop offset="1" stop-color="#E3E3E3" stop-opacity="0"/>
        </linearGradient>
        <linearGradient id="paint3_linear_292_6855" x1="12" y1="21" x2="129.5" y2="95.1667" gradientUnits="userSpaceOnUse">
            <stop stop-color="#ECECEC"/>
            <stop offset="1" stop-color="#D0D0D0" stop-opacity="0"/>
        </linearGradient>
    </defs>
    <g filter="url(#filter0_bd_292_6855)">
<mask id="path-1-inside-1_292_6855" fill="white">
<path fill-rule="evenodd" clip-rule="evenodd" d="M111.684 26.0322C108.741 17.2936 100.481 11 90.75 11C80.2367 11 71.4393 18.3467 69.2115 28.1863C66.8341 27.3111 64.2645 26.8333 61.5833 26.8333C49.387 26.8333 39.5 36.7204 39.5 48.9167C39.5 61.113 49.387 71 61.5833 71C67.2308 71 72.3831 68.8801 76.288 65.3926C80.4694 76.9264 91.5224 85.1667 104.5 85.1667C117.899 85.1667 129.246 76.3828 133.097 64.2595C133.697 64.3084 134.304 64.3333 134.917 64.3333C147.113 64.3333 157 54.4463 157 42.25C157 30.0537 147.113 20.1667 134.917 20.1667C128.022 20.1667 121.866 23.3262 117.816 28.2764C115.881 27.3164 113.828 26.5591 111.684 26.0322Z"/>
</mask>
<path fill-rule="evenodd" clip-rule="evenodd" d="M111.684 26.0322C108.741 17.2936 100.481 11 90.75 11C80.2367 11 71.4393 18.3467 69.2115 28.1863C66.8341 27.3111 64.2645 26.8333 61.5833 26.8333C49.387 26.8333 39.5 36.7204 39.5 48.9167C39.5 61.113 49.387 71 61.5833 71C67.2308 71 72.3831 68.8801 76.288 65.3926C80.4694 76.9264 91.5224 85.1667 104.5 85.1667C117.899 85.1667 129.246 76.3828 133.097 64.2595C133.697 64.3084 134.304 64.3333 134.917 64.3333C147.113 64.3333 157 54.4463 157 42.25C157 30.0537 147.113 20.1667 134.917 20.1667C128.022 20.1667 121.866 23.3262 117.816 28.2764C115.881 27.3164 113.828 26.5591 111.684 26.0322Z" fill="url(#paint0_linear_292_6855)" shape-rendering="crispEdges"/>
<path d="M111.684 26.0322L110.736 26.3513L110.911 26.8722L111.445 27.0033L111.684 26.0322ZM69.2115 28.1863L68.8661 29.1247L69.9353 29.5183L70.1869 28.4071L69.2115 28.1863ZM76.288 65.3926L77.2281 65.0518L76.7243 63.6622L75.6218 64.6468L76.288 65.3926ZM133.097 64.2595L133.179 63.2628L132.385 63.1981L132.144 63.9567L133.097 64.2595ZM117.816 28.2764L117.371 29.1722L118.085 29.5263L118.59 28.9096L117.816 28.2764ZM112.631 25.7131C109.556 16.5799 100.923 10 90.75 10V12C100.038 12 107.927 18.0072 110.736 26.3513L112.631 25.7131ZM90.75 10C79.7593 10 70.5649 17.6801 68.2362 27.9655L70.1869 28.4071C72.3137 19.0132 80.714 12 90.75 12V10ZM69.557 27.2478C67.0705 26.3326 64.3841 25.8333 61.5833 25.8333V27.8333C64.1449 27.8333 66.5976 28.2897 68.8661 29.1247L69.557 27.2478ZM61.5833 25.8333C48.8348 25.8333 38.5 36.1681 38.5 48.9167H40.5C40.5 37.2727 49.9393 27.8333 61.5833 27.8333V25.8333ZM38.5 48.9167C38.5 61.6652 48.8348 72 61.5833 72V70C49.9393 70 40.5 60.5607 40.5 48.9167H38.5ZM61.5833 72C67.4859 72 72.8731 69.7833 76.9541 66.1385L75.6218 64.6468C71.8932 67.9769 66.9757 70 61.5833 70V72ZM104.5 84.1667C91.9566 84.1667 81.2707 76.2025 77.2281 65.0518L75.3478 65.7335C79.6682 77.6502 91.0883 86.1667 104.5 86.1667V84.1667ZM132.144 63.9567C128.421 75.6769 117.451 84.1667 104.5 84.1667V86.1667C118.347 86.1667 130.071 77.0888 134.05 64.5622L132.144 63.9567ZM134.917 63.3333C134.331 63.3333 133.752 63.3095 133.179 63.2628L133.016 65.2562C133.643 65.3073 134.277 65.3333 134.917 65.3333V63.3333ZM156 42.25C156 53.894 146.561 63.3333 134.917 63.3333V65.3333C147.665 65.3333 158 54.9986 158 42.25H156ZM134.917 21.1667C146.561 21.1667 156 30.606 156 42.25H158C158 29.5014 147.665 19.1667 134.917 19.1667V21.1667ZM118.59 28.9096C122.458 24.1816 128.335 21.1667 134.917 21.1667V19.1667C127.71 19.1667 121.273 22.4708 117.042 27.6432L118.59 28.9096ZM111.445 27.0033C113.517 27.5125 115.501 28.2443 117.371 29.1722L118.26 27.3805C116.261 26.3884 114.138 25.6057 111.922 25.0611L111.445 27.0033Z" fill="url(#paint1_linear_292_6855)" mask="url(#path-1-inside-1_292_6855)"/>
</g>
<g filter="url(#filter1_bd_292_6855)">
<mask id="path-3-inside-2_292_6855" fill="white">
<path fill-rule="evenodd" clip-rule="evenodd" d="M84.1837 36.0322C81.2414 27.2936 72.9807 21 63.25 21C52.7367 21 43.9393 28.3467 41.7115 38.1863C39.3341 37.3111 36.7645 36.8333 34.0833 36.8333C21.887 36.8333 12 46.7204 12 58.9167C12 71.113 21.887 81 34.0833 81C39.7308 81 44.8831 78.8801 48.788 75.3926C52.9694 86.9264 64.0224 95.1667 77 95.1667C90.3988 95.1667 101.746 86.3828 105.597 74.2595C106.197 74.3084 106.804 74.3333 107.417 74.3333C119.613 74.3333 129.5 64.4463 129.5 52.25C129.5 40.0537 119.613 30.1667 107.417 30.1667C100.522 30.1667 94.3655 33.3262 90.3158 38.2764C88.3809 37.3164 86.3276 36.5591 84.1837 36.0322Z"/>
</mask>
<path fill-rule="evenodd" clip-rule="evenodd" d="M84.1837 36.0322C81.2414 27.2936 72.9807 21 63.25 21C52.7367 21 43.9393 28.3467 41.7115 38.1863C39.3341 37.3111 36.7645 36.8333 34.0833 36.8333C21.887 36.8333 12 46.7204 12 58.9167C12 71.113 21.887 81 34.0833 81C39.7308 81 44.8831 78.8801 48.788 75.3926C52.9694 86.9264 64.0224 95.1667 77 95.1667C90.3988 95.1667 101.746 86.3828 105.597 74.2595C106.197 74.3084 106.804 74.3333 107.417 74.3333C119.613 74.3333 129.5 64.4463 129.5 52.25C129.5 40.0537 119.613 30.1667 107.417 30.1667C100.522 30.1667 94.3655 33.3262 90.3158 38.2764C88.3809 37.3164 86.3276 36.5591 84.1837 36.0322Z" fill="url(#paint2_linear_292_6855)" shape-rendering="crispEdges"/>
<path d="M84.1837 36.0322L83.236 36.3513L83.4114 36.8722L83.9451 37.0033L84.1837 36.0322ZM41.7115 38.1863L41.3661 39.1247L42.4353 39.5183L42.6869 38.4071L41.7115 38.1863ZM48.788 75.3926L49.7281 75.0518L49.2243 73.6622L48.1218 74.6468L48.788 75.3926ZM105.597 74.2595L105.679 73.2628L104.885 73.1981L104.644 73.9567L105.597 74.2595ZM90.3158 38.2764L89.8713 39.1722L90.5852 39.5263L91.0898 38.9096L90.3158 38.2764ZM85.1314 35.7131C82.0563 26.5799 73.4229 20 63.25 20V22C72.5385 22 80.4265 28.0072 83.236 36.3513L85.1314 35.7131ZM63.25 20C52.2593 20 43.0649 27.6801 40.7362 37.9655L42.6869 38.4071C44.8137 29.0132 53.214 22 63.25 22V20ZM42.057 37.2478C39.5705 36.3326 36.8841 35.8333 34.0833 35.8333V37.8333C36.6449 37.8333 39.0976 38.2897 41.3661 39.1247L42.057 37.2478ZM34.0833 35.8333C21.3348 35.8333 11 46.1681 11 58.9167H13C13 47.2727 22.4393 37.8333 34.0833 37.8333V35.8333ZM11 58.9167C11 71.6652 21.3348 82 34.0833 82V80C22.4393 80 13 70.5607 13 58.9167H11ZM34.0833 82C39.9859 82 45.3731 79.7833 49.4541 76.1385L48.1218 74.6468C44.3932 77.9769 39.4757 80 34.0833 80V82ZM77 94.1667C64.4566 94.1667 53.7707 86.2025 49.7281 75.0518L47.8478 75.7335C52.1682 87.6502 63.5883 96.1667 77 96.1667V94.1667ZM104.644 73.9567C100.921 85.6769 89.9506 94.1667 77 94.1667V96.1667C90.8469 96.1667 102.571 87.0888 106.55 74.5622L104.644 73.9567ZM107.417 73.3333C106.831 73.3333 106.252 73.3095 105.679 73.2628L105.516 75.2562C106.143 75.3073 106.777 75.3333 107.417 75.3333V73.3333ZM128.5 52.25C128.5 63.894 119.061 73.3333 107.417 73.3333V75.3333C120.165 75.3333 130.5 64.9986 130.5 52.25H128.5ZM107.417 31.1667C119.061 31.1667 128.5 40.606 128.5 52.25H130.5C130.5 39.5014 120.165 29.1667 107.417 29.1667V31.1667ZM91.0898 38.9096C94.9577 34.1816 100.835 31.1667 107.417 31.1667V29.1667C100.21 29.1667 93.7733 32.4708 89.5418 37.6432L91.0898 38.9096ZM83.9451 37.0033C86.0169 37.5125 88.0012 38.2443 89.8713 39.1722L90.7602 37.3805C88.7605 36.3884 86.6383 35.6057 84.4224 35.0611L83.9451 37.0033Z" fill="url(#paint3_linear_292_6855)" mask="url(#path-3-inside-2_292_6855)"/>
</g>

</svg>
