<svg width="42" height="42" viewBox="0 0 42 42" fill="none" xmlns="http://www.w3.org/2000/svg">
<path d="M11.2321 27.0464H8.44141" stroke="#3A6339"/>
<path d="M8.90698 27.0466C4.54007 27.0466 1 23.5065 1 19.1396C1 14.7727 4.54007 11.2327 8.90698 11.2327" stroke="#3A6339"/>
<path d="M8.44141 11.2326C8.44141 5.58127 13.0227 1 18.674 1C23.3578 1 27.3066 4.14697 28.5213 8.44186" stroke="#3A6339"/>
<path d="M35.4191 13.5582C35.4191 10.7325 33.1284 8.44189 30.3028 8.44189C27.4772 8.44189 25.1865 10.7325 25.1865 13.5582" stroke="#3A6339"/>
<path d="M34.0237 13.093C37.8768 13.093 41.0004 16.2166 41.0004 20.0698C41.0004 23.9229 37.8768 27.0465 34.0237 27.0465H30.3027" stroke="#3A6339"/>
<path d="M15.8837 19.6047V31.1629C15.8837 31.7152 15.436 32.1629 14.8837 32.1629H11.2326M20.5349 20.0699V35.4187M25.186 19.6047V31.1629C25.186 31.7152 25.6338 32.1629 26.186 32.1629H29.8372" stroke="#3A6339"/>
<circle cx="7.97675" cy="32.1628" r="2.75581" stroke="#3A6339"/>
<circle cx="33.0927" cy="32.1628" r="2.75581" stroke="#3A6339"/>
<circle cx="20.5344" cy="38.2092" r="3.22093" stroke="#3A6339"/>
</svg>
