<svg width="45" height="45" viewBox="0 0 45 45" fill="none" xmlns="http://www.w3.org/2000/svg">
<path d="M37.6059 35.0069C36.7499 34.4717 35.7383 34.1624 34.6544 34.1624C31.5758 34.1624 29.0801 36.6581 29.0801 39.7367C29.0801 40.5164 29.2402 41.2588 29.5293 41.9326" stroke="#3A6339"/>
<path d="M35.6422 24.5605L35.2768 24.9259C35.2034 24.9993 35.1621 25.0989 35.1621 25.2028C35.1621 25.5373 35.5545 25.7178 35.8085 25.5001L36.2009 25.1637C36.2921 25.0856 36.3445 24.9715 36.3445 24.8514C36.3445 24.4848 35.9014 24.3013 35.6422 24.5605Z" stroke="#3A6339" stroke-width="0.5"/>
<path d="M16.3854 28.2765L16.02 28.642C15.9465 28.7154 15.9053 28.815 15.9053 28.9188C15.9053 29.2534 16.2977 29.4338 16.5516 29.2161L16.944 28.8798C17.0352 28.8016 17.0877 28.6875 17.0877 28.5674C17.0877 28.2009 16.6446 28.0174 16.3854 28.2765Z" stroke="#3A6339" stroke-width="0.5"/>
<path d="M21.7907 28.9523L21.4252 29.3177C21.3518 29.3912 21.3105 29.4908 21.3105 29.5946C21.3105 29.9291 21.7029 30.1096 21.9569 29.8919L22.3493 29.5556C22.4405 29.4774 22.493 29.3633 22.493 29.2432C22.493 28.8767 22.0498 28.6931 21.7907 28.9523Z" stroke="#3A6339" stroke-width="0.5"/>
<path d="M31.2497 26.2497L30.8842 26.6151C30.8108 26.6885 30.7695 26.7881 30.7695 26.892C30.7695 27.2265 31.1619 27.407 31.4159 27.1893L31.8083 26.8529C31.8995 26.7748 31.952 26.6607 31.952 26.5406C31.952 26.1741 31.5088 25.9905 31.2497 26.2497Z" stroke="#3A6339" stroke-width="0.5"/>
<path d="M11.9938 29.9657L11.6284 30.3312C11.5549 30.4046 11.5137 30.5042 11.5137 30.608C11.5137 30.9426 11.9061 31.123 12.16 30.9053L12.5524 30.569C12.6436 30.4908 12.6961 30.3767 12.6961 30.2566C12.6961 29.8901 12.253 29.7066 11.9938 29.9657Z" stroke="#3A6339" stroke-width="0.5"/>
<path d="M35.6422 22.1952L35.2768 22.5607C35.2034 22.6341 35.1621 22.7337 35.1621 22.8375C35.1621 23.1721 35.5545 23.3525 35.8085 23.1348L36.2009 22.7985C36.2921 22.7203 36.3445 22.6062 36.3445 22.4861C36.3445 22.1196 35.9014 21.9361 35.6422 22.1952Z" stroke="#3A6339" stroke-width="0.5"/>
<path d="M16.3854 25.912L16.02 26.2775C15.9465 26.3509 15.9053 26.4505 15.9053 26.5543C15.9053 26.8889 16.2977 27.0693 16.5516 26.8516L16.944 26.5153C17.0352 26.4371 17.0877 26.323 17.0877 26.2029C17.0877 25.8364 16.6446 25.6529 16.3854 25.912Z" stroke="#3A6339" stroke-width="0.5"/>
<path d="M21.7907 26.5873L21.4252 26.9528C21.3518 27.0262 21.3105 27.1258 21.3105 27.2296C21.3105 27.5642 21.7029 27.7446 21.9569 27.5269L22.3493 27.1906C22.4405 27.1124 22.493 26.9983 22.493 26.8782C22.493 26.5117 22.0498 26.3281 21.7907 26.5873Z" stroke="#3A6339" stroke-width="0.5"/>
<path d="M31.2497 23.8847L30.8842 24.2501C30.8108 24.3236 30.7695 24.4231 30.7695 24.527C30.7695 24.8615 31.1619 25.042 31.4159 24.8243L31.8083 24.4879C31.8995 24.4098 31.952 24.2957 31.952 24.1756C31.952 23.8091 31.5088 23.6255 31.2497 23.8847Z" stroke="#3A6339" stroke-width="0.5"/>
<path d="M11.9938 27.6007L11.6284 27.9662C11.5549 28.0396 11.5137 28.1392 11.5137 28.2431C11.5137 28.5776 11.9061 28.7581 12.16 28.5403L12.5524 28.204C12.6436 28.1259 12.6961 28.0118 12.6961 27.8917C12.6961 27.5251 12.253 27.3416 11.9938 27.6007Z" stroke="#3A6339" stroke-width="0.5"/>
<path d="M35.6422 20.1684L35.2768 20.5338C35.2034 20.6072 35.1621 20.7068 35.1621 20.8107C35.1621 21.1452 35.5545 21.3257 35.8085 21.108L36.2009 20.7716C36.2921 20.6935 36.3445 20.5794 36.3445 20.4593C36.3445 20.0928 35.9014 19.9092 35.6422 20.1684Z" stroke="#3A6339" stroke-width="0.5"/>
<path d="M16.3854 23.8847L16.02 24.2501C15.9465 24.3236 15.9053 24.4231 15.9053 24.527C15.9053 24.8615 16.2977 25.042 16.5516 24.8243L16.944 24.4879C17.0352 24.4098 17.0877 24.2957 17.0877 24.1756C17.0877 23.8091 16.6446 23.6255 16.3854 23.8847Z" stroke="#3A6339" stroke-width="0.5"/>
<path d="M21.7907 24.5605L21.4252 24.9259C21.3518 24.9993 21.3105 25.0989 21.3105 25.2028C21.3105 25.5373 21.7029 25.7178 21.9569 25.5001L22.3493 25.1637C22.4405 25.0856 22.493 24.9715 22.493 24.8514C22.493 24.4848 22.0498 24.3013 21.7907 24.5605Z" stroke="#3A6339" stroke-width="0.5"/>
<path d="M31.2497 21.8576L30.8842 22.223C30.8108 22.2965 30.7695 22.396 30.7695 22.4999C30.7695 22.8344 31.1619 23.0149 31.4159 22.7972L31.8083 22.4608C31.8995 22.3827 31.952 22.2686 31.952 22.1485C31.952 21.782 31.5088 21.5984 31.2497 21.8576Z" stroke="#3A6339" stroke-width="0.5"/>
<path d="M11.9938 25.5739L11.6284 25.9393C11.5549 26.0128 11.5137 26.1124 11.5137 26.2162C11.5137 26.5507 11.9061 26.7312 12.16 26.5135L12.5524 26.1772C12.6436 26.099 12.6961 25.9849 12.6961 25.8648C12.6961 25.4983 12.253 25.3147 11.9938 25.5739Z" stroke="#3A6339" stroke-width="0.5"/>
<path d="M35.6422 17.8039L35.2768 18.1693C35.2034 18.2427 35.1621 18.3423 35.1621 18.4462C35.1621 18.7807 35.5545 18.9612 35.8085 18.7435L36.2009 18.4071C36.2921 18.329 36.3445 18.2149 36.3445 18.0948C36.3445 17.7283 35.9014 17.5447 35.6422 17.8039Z" stroke="#3A6339" stroke-width="0.5"/>
<path d="M16.3854 21.5199L16.02 21.8854C15.9465 21.9588 15.9053 22.0584 15.9053 22.1622C15.9053 22.4968 16.2977 22.6772 16.5516 22.4595L16.944 22.1232C17.0352 22.045 17.0877 21.9309 17.0877 21.8108C17.0877 21.4443 16.6446 21.2608 16.3854 21.5199Z" stroke="#3A6339" stroke-width="0.5"/>
<path d="M21.7907 22.1952L21.4252 22.5607C21.3518 22.6341 21.3105 22.7337 21.3105 22.8375C21.3105 23.1721 21.7029 23.3525 21.9569 23.1348L22.3493 22.7985C22.4405 22.7203 22.493 22.6062 22.493 22.4861C22.493 22.1196 22.0498 21.9361 21.7907 22.1952Z" stroke="#3A6339" stroke-width="0.5"/>
<path d="M31.2497 19.4926L30.8842 19.858C30.8108 19.9315 30.7695 20.0311 30.7695 20.1349C30.7695 20.4694 31.1619 20.6499 31.4159 20.4322L31.8083 20.0959C31.8995 20.0177 31.952 19.9036 31.952 19.7835C31.952 19.417 31.5088 19.2334 31.2497 19.4926Z" stroke="#3A6339" stroke-width="0.5"/>
<path d="M11.9938 23.2094L11.6284 23.5748C11.5549 23.6483 11.5137 23.7479 11.5137 23.8517C11.5137 24.1862 11.9061 24.3667 12.16 24.149L12.5524 23.8127C12.6436 23.7345 12.6961 23.6204 12.6961 23.5003C12.6961 23.1338 12.253 22.9502 11.9938 23.2094Z" stroke="#3A6339" stroke-width="0.5"/>
<path d="M33.5003 24.0539L33.8658 24.4193C33.9392 24.4927 33.9805 24.5923 33.9805 24.6962C33.9805 25.0307 33.5881 25.2112 33.3341 24.9935L32.9417 24.6571C32.8505 24.579 32.798 24.4649 32.798 24.3448C32.798 23.9783 33.2412 23.7947 33.5003 24.0539Z" stroke="#3A6339" stroke-width="0.5"/>
<path d="M14.2425 27.7699L14.608 28.1354C14.6814 28.2088 14.7227 28.3084 14.7227 28.4122C14.7227 28.7468 14.3303 28.9272 14.0763 28.7095L13.6839 28.3732C13.5927 28.295 13.5402 28.1809 13.5402 28.0608C13.5402 27.6943 13.9834 27.5108 14.2425 27.7699Z" stroke="#3A6339" stroke-width="0.5"/>
<path d="M19.6488 28.4452L20.0142 28.8107C20.0877 28.8841 20.1289 28.9837 20.1289 29.0875C20.1289 29.4221 19.7365 29.6025 19.4825 29.3848L19.0901 29.0485C18.999 28.9703 18.9465 28.8562 18.9465 28.7361C18.9465 28.3696 19.3896 28.1861 19.6488 28.4452Z" stroke="#3A6339" stroke-width="0.5"/>
<path d="M29.1078 25.7426L29.4732 26.108C29.5466 26.1815 29.5879 26.2811 29.5879 26.3849C29.5879 26.7194 29.1955 26.8999 28.9415 26.6822L28.5491 26.3459C28.4579 26.2677 28.4055 26.1536 28.4055 26.0335C28.4055 25.667 28.8486 25.4834 29.1078 25.7426Z" stroke="#3A6339" stroke-width="0.5"/>
<path d="M9.84995 29.4594L10.2154 29.8248C10.2888 29.8983 10.3301 29.9979 10.3301 30.1017C10.3301 30.4362 9.93769 30.6167 9.6837 30.399L9.29131 30.0627C9.20013 29.9845 9.14765 29.8704 9.14765 29.7503C9.14765 29.3838 9.59079 29.2002 9.84995 29.4594Z" stroke="#3A6339" stroke-width="0.5"/>
<path d="M33.5003 21.6889L33.8658 22.0543C33.9392 22.1278 33.9805 22.2273 33.9805 22.3312C33.9805 22.6657 33.5881 22.8462 33.3341 22.6285L32.9417 22.2921C32.8505 22.214 32.798 22.0999 32.798 21.9798C32.798 21.6133 33.2412 21.4297 33.5003 21.6889Z" stroke="#3A6339" stroke-width="0.5"/>
<path d="M14.2425 25.4049L14.608 25.7704C14.6814 25.8438 14.7227 25.9434 14.7227 26.0473C14.7227 26.3818 14.3303 26.5623 14.0763 26.3445L13.6839 26.0082C13.5927 25.9301 13.5402 25.8159 13.5402 25.6959C13.5402 25.3293 13.9834 25.1458 14.2425 25.4049Z" stroke="#3A6339" stroke-width="0.5"/>
<path d="M19.6488 26.0807L20.0142 26.4462C20.0877 26.5196 20.1289 26.6192 20.1289 26.723C20.1289 27.0576 19.7365 27.238 19.4825 27.0203L19.0901 26.684C18.999 26.6058 18.9465 26.4917 18.9465 26.3716C18.9465 26.0051 19.3896 25.8216 19.6488 26.0807Z" stroke="#3A6339" stroke-width="0.5"/>
<path d="M29.1078 23.3781L29.4732 23.7435C29.5466 23.817 29.5879 23.9166 29.5879 24.0204C29.5879 24.3549 29.1955 24.5354 28.9415 24.3177L28.5491 23.9814C28.4579 23.9032 28.4055 23.7891 28.4055 23.669C28.4055 23.3025 28.8486 23.1189 29.1078 23.3781Z" stroke="#3A6339" stroke-width="0.5"/>
<path d="M9.84995 27.0942L10.2154 27.4596C10.2888 27.533 10.3301 27.6326 10.3301 27.7365C10.3301 28.071 9.93769 28.2515 9.6837 28.0338L9.29131 27.6974C9.20013 27.6193 9.14765 27.5052 9.14765 27.3851C9.14765 27.0185 9.59079 26.835 9.84995 27.0942Z" stroke="#3A6339" stroke-width="0.5"/>
<path d="M33.5003 19.662L33.8658 20.0275C33.9392 20.1009 33.9805 20.2005 33.9805 20.3043C33.9805 20.6389 33.5881 20.8193 33.3341 20.6016L32.9417 20.2653C32.8505 20.1871 32.798 20.073 32.798 19.9529C32.798 19.5864 33.2412 19.4029 33.5003 19.662Z" stroke="#3A6339" stroke-width="0.5"/>
<path d="M14.2425 23.3781L14.608 23.7435C14.6814 23.817 14.7227 23.9166 14.7227 24.0204C14.7227 24.3549 14.3303 24.5354 14.0763 24.3177L13.6839 23.9814C13.5927 23.9032 13.5402 23.7891 13.5402 23.669C13.5402 23.3025 13.9834 23.1189 14.2425 23.3781Z" stroke="#3A6339" stroke-width="0.5"/>
<path d="M19.6488 24.0539L20.0142 24.4193C20.0877 24.4927 20.1289 24.5923 20.1289 24.6962C20.1289 25.0307 19.7365 25.2112 19.4825 24.9935L19.0901 24.6571C18.999 24.579 18.9465 24.4649 18.9465 24.3448C18.9465 23.9783 19.3896 23.7947 19.6488 24.0539Z" stroke="#3A6339" stroke-width="0.5"/>
<path d="M29.1078 21.3507L29.4732 21.7162C29.5466 21.7896 29.5879 21.8892 29.5879 21.9931C29.5879 22.3276 29.1955 22.5081 28.9415 22.2903L28.5491 21.954C28.4579 21.8759 28.4055 21.7618 28.4055 21.6417C28.4055 21.2751 28.8486 21.0916 29.1078 21.3507Z" stroke="#3A6339" stroke-width="0.5"/>
<path d="M9.84995 25.0673L10.2154 25.4327C10.2888 25.5062 10.3301 25.6058 10.3301 25.7096C10.3301 26.0441 9.93769 26.2246 9.6837 26.0069L9.29131 25.6706C9.20013 25.5924 9.14765 25.4783 9.14765 25.3582C9.14765 24.9917 9.59079 24.8081 9.84995 25.0673Z" stroke="#3A6339" stroke-width="0.5"/>
<path d="M33.5003 17.297L33.8658 17.6625C33.9392 17.7359 33.9805 17.8355 33.9805 17.9393C33.9805 18.2739 33.5881 18.4543 33.3341 18.2366L32.9417 17.9003C32.8505 17.8221 32.798 17.708 32.798 17.5879C32.798 17.2214 33.2412 17.0379 33.5003 17.297Z" stroke="#3A6339" stroke-width="0.5"/>
<path d="M14.2425 21.0131L14.608 21.3785C14.6814 21.452 14.7227 21.5516 14.7227 21.6554C14.7227 21.9899 14.3303 22.1704 14.0763 21.9527L13.6839 21.6164C13.5927 21.5382 13.5402 21.4241 13.5402 21.304C13.5402 20.9375 13.9834 20.7539 14.2425 21.0131Z" stroke="#3A6339" stroke-width="0.5"/>
<path d="M19.6488 21.6889L20.0142 22.0543C20.0877 22.1278 20.1289 22.2273 20.1289 22.3312C20.1289 22.6657 19.7365 22.8462 19.4825 22.6285L19.0901 22.2921C18.999 22.214 18.9465 22.0999 18.9465 21.9798C18.9465 21.6133 19.3896 21.4297 19.6488 21.6889Z" stroke="#3A6339" stroke-width="0.5"/>
<path d="M35.0252 16.2365L35.0252 16.7533C35.0252 16.8571 34.984 16.9567 34.9105 17.0301C34.674 17.2667 34.2689 17.1168 34.2433 16.7833L34.2036 16.268C34.1944 16.1483 34.238 16.0305 34.3229 15.9455C34.5821 15.6864 35.0252 15.8699 35.0252 16.2365Z" stroke="#3A6339" stroke-width="0.5"/>
<path d="M15.7694 19.9525L15.7694 20.4693C15.7694 20.5732 15.7281 20.6728 15.6547 20.7462C15.4181 20.9827 15.0131 20.8329 14.9874 20.4994L14.9478 19.9841C14.9386 19.8643 14.9821 19.7465 15.0671 19.6616C15.3262 19.4024 15.7694 19.586 15.7694 19.9525Z" stroke="#3A6339" stroke-width="0.5"/>
<path d="M21.1737 20.6283L21.1737 21.1451C21.1737 21.249 21.1324 21.3486 21.059 21.422C20.8224 21.6585 20.4174 21.5087 20.3917 21.1751L20.3521 20.6599C20.3429 20.5401 20.3864 20.4223 20.4714 20.3374C20.7305 20.0782 21.1737 20.2618 21.1737 20.6283Z" stroke="#3A6339" stroke-width="0.5"/>
<path d="M30.6346 18.2633L30.6346 18.7801C30.6346 18.884 30.5933 18.9836 30.5199 19.057C30.2834 19.2935 29.8783 19.1437 29.8526 18.8102L29.813 18.2949C29.8038 18.1751 29.8474 18.0573 29.9323 17.9724C30.1915 17.7132 30.6346 17.8968 30.6346 18.2633Z" stroke="#3A6339" stroke-width="0.5"/>
<path d="M11.3768 21.9796L11.3768 22.4964C11.3768 22.6003 11.3355 22.6999 11.2621 22.7733C11.0256 23.0098 10.6205 22.86 10.5948 22.5265L10.5552 22.0112C10.546 21.8914 10.5896 21.7736 10.6745 21.6887C10.9336 21.4295 11.3768 21.6131 11.3768 21.9796Z" stroke="#3A6339" stroke-width="0.5"/>
<path d="M29.1078 18.9862L29.4732 19.3517C29.5466 19.4251 29.5879 19.5247 29.5879 19.6286C29.5879 19.9631 29.1955 20.1436 28.9415 19.9258L28.5491 19.5895C28.4579 19.5114 28.4055 19.3972 28.4055 19.2771C28.4055 18.9106 28.8486 18.7271 29.1078 18.9862Z" stroke="#3A6339" stroke-width="0.5"/>
<path d="M9.84995 22.7023L10.2154 23.0677C10.2888 23.1412 10.3301 23.2408 10.3301 23.3446C10.3301 23.6791 9.93769 23.8596 9.6837 23.6419L9.29131 23.3056C9.20013 23.2274 9.14765 23.1133 9.14765 22.9932C9.14765 22.6267 9.59079 22.4431 9.84995 22.7023Z" stroke="#3A6339" stroke-width="0.5"/>
<path d="M34.6553 28.4189V18.6216" stroke="#3A6339" stroke-width="0.5"/>
<path d="M15.3984 32.1349V22.3376" stroke="#3A6339" stroke-width="0.5"/>
<path d="M20.8037 32.8107V23.0134" stroke="#3A6339" stroke-width="0.5"/>
<path d="M11.7744 39.5673C12.7968 38.3293 14.3436 37.5403 16.0746 37.5403C19.1532 37.5403 21.6489 40.036 21.6489 43.1146C21.6489 43.2854 21.6412 43.4545 21.6262 43.6214" stroke="#3A6339"/>
<path d="M39.0476 32.3236C37.7616 31.56 36.2599 31.1216 34.6557 31.1216C30.718 31.1216 27.3973 33.7635 26.3695 37.3716L25.9766 38.0715" stroke="#3A6339"/>
<path d="M9.65332 37.3716C11.2308 35.6092 13.5231 34.5 16.0746 34.5C20.8324 34.5 24.6894 38.357 24.6894 43.1149C24.6894 43.228 24.6873 43.3406 24.6829 43.4527" stroke="#3A6339"/>
<path d="M39.5538 29.5309C38.0715 28.8181 36.41 28.4187 34.6552 28.4187C30.2163 28.4187 26.3743 30.9742 24.52 34.6942L24.1904 35.0951" stroke="#3A6339"/>
<path d="M27.3925 43.1149C27.3925 36.8644 22.3254 31.7974 16.0749 31.7974C12.8957 31.7974 10.0226 33.1082 7.9668 35.219" stroke="#3A6339"/>
<path d="M30.2637 29.4323V19.635" stroke="#3A6339" stroke-width="0.5"/>
<path d="M11.0068 33.1489V23.3516" stroke="#3A6339" stroke-width="0.5"/>
<circle cx="22.8314" cy="26.5606" r="17.223" stroke="#3A6339"/>
<path d="M21.3545 6.13341L21.5599 4.87964C21.5856 4.72282 21.5353 4.56311 21.4242 4.44943L20.6357 3.64209C20.3519 3.35159 20.5145 2.8619 20.9157 2.7988L22.006 2.62729C22.1676 2.60187 22.3065 2.49905 22.378 2.35196L22.8942 1.29009C23.0754 0.917285 23.6055 0.914237 23.791 1.28493L24.3276 2.35715C24.3997 2.50126 24.5368 2.60178 24.6959 2.62716L25.7943 2.80233C26.1884 2.86519 26.3537 3.34175 26.0831 3.63511L25.2326 4.55709C25.132 4.66609 25.0851 4.81412 25.1044 4.96116L25.2597 6.14483C25.3133 6.55314 24.8779 6.84753 24.5189 6.64575L23.5769 6.11624C23.4277 6.03239 23.246 6.03066 23.0953 6.11166L22.0846 6.65471C21.7192 6.85103 21.2874 6.54273 21.3545 6.13341Z" stroke="#3A6339" stroke-width="0.5"/>
<path d="M31.8272 8.83629L32.0326 7.58252C32.0583 7.4257 32.0079 7.26599 31.8969 7.15231L31.1083 6.34497C30.8246 6.05447 30.9872 5.56478 31.3883 5.50168L32.4787 5.33017C32.6402 5.30475 32.7791 5.20193 32.8506 5.05484L33.3668 3.99297C33.5481 3.62017 34.0782 3.61712 34.2637 3.98782L34.8002 5.06003C34.8723 5.20414 35.0095 5.30466 35.1686 5.33004L36.267 5.50521C36.6611 5.56807 36.8264 6.04463 36.5557 6.33799L35.7053 7.25997C35.6047 7.36897 35.5577 7.517 35.577 7.66404L35.7323 8.84771C35.7859 9.25602 35.3506 9.55042 34.9916 9.34863L34.0496 8.81912C33.9004 8.73527 33.7187 8.73354 33.5679 8.81454L32.5572 9.35759C32.1919 9.55391 31.7601 9.24561 31.8272 8.83629Z" stroke="#3A6339" stroke-width="0.5"/>
<path d="M10.544 8.83629L10.7494 7.58252C10.7751 7.4257 10.7247 7.26599 10.6137 7.15231L9.82512 6.34497C9.54138 6.05447 9.70397 5.56478 10.1051 5.50168L11.1954 5.33017C11.357 5.30475 11.4959 5.20193 11.5674 5.05484L12.0836 3.99297C12.2649 3.62017 12.7949 3.61712 12.9805 3.98782L13.517 5.06003C13.5891 5.20414 13.7263 5.30466 13.8854 5.33004L14.9838 5.50521C15.3779 5.56807 15.5432 6.04463 15.2725 6.33799L14.4221 7.25997C14.3215 7.36897 14.2745 7.517 14.2938 7.66404L14.4491 8.84771C14.5027 9.25602 14.0674 9.55042 13.7084 9.34863L12.7664 8.81912C12.6172 8.73527 12.4355 8.73354 12.2847 8.81454L11.274 9.35759C10.9087 9.55391 10.4769 9.24561 10.544 8.83629Z" stroke="#3A6339" stroke-width="0.5"/>
<path d="M2.09864 16.6066L2.30409 15.3528C2.32978 15.196 2.2794 15.0363 2.16836 14.9226L1.37981 14.1152C1.09607 13.8247 1.25866 13.335 1.6598 13.2719L2.75014 13.1004C2.9117 13.075 3.05062 12.9722 3.12212 12.8251L3.63832 11.7632C3.81955 11.3904 4.34964 11.3874 4.53514 11.7581L5.0717 12.8303C5.14381 12.9744 5.28096 13.0749 5.44009 13.1003L6.53847 13.2755C6.93259 13.3383 7.09784 13.8149 6.82723 14.1083L5.97674 15.0302C5.87618 15.1392 5.82921 15.2873 5.8485 15.4343L6.00383 16.618C6.05741 17.0263 5.62207 17.3207 5.26308 17.1189L4.32107 16.5894C4.17188 16.5055 3.99017 16.5038 3.83942 16.5848L2.82872 17.1279C2.46334 17.3242 2.03157 17.0159 2.09864 16.6066Z" stroke="#3A6339" stroke-width="0.5"/>
<path d="M38.9229 16.6066L39.1283 15.3528C39.154 15.196 39.1036 15.0363 38.9926 14.9226L38.204 14.1152C37.9203 13.8247 38.0829 13.335 38.484 13.2719L39.5744 13.1004C39.7359 13.075 39.8748 12.9722 39.9463 12.8251L40.4625 11.7632C40.6438 11.3904 41.1739 11.3874 41.3594 11.7581L41.8959 12.8303C41.968 12.9744 42.1052 13.0749 42.2643 13.1003L43.3627 13.2755C43.7568 13.3383 43.9221 13.8149 43.6515 14.1083L42.801 15.0302C42.7004 15.1392 42.6534 15.2873 42.6727 15.4343L42.8281 16.618C42.8816 17.0263 42.4463 17.3207 42.0873 17.1189L41.1453 16.5894C40.9961 16.5055 40.8144 16.5038 40.6636 16.5848L39.6529 17.1279C39.2876 17.3242 38.8558 17.0159 38.9229 16.6066Z" stroke="#3A6339" stroke-width="0.5"/>
</svg>
