<svg width="52" height="54" viewBox="0 0 52 54" fill="none" xmlns="http://www.w3.org/2000/svg">
<path d="M24.6514 5.75499L24.8568 4.50123C24.8825 4.3444 24.8321 4.1847 24.7211 4.07101L23.9325 3.26367C23.6488 2.97317 23.8114 2.48348 24.2125 2.42038L25.3029 2.24887C25.4644 2.22345 25.6034 2.12063 25.6749 1.97354L26.1911 0.911673C26.3723 0.538867 26.9024 0.535819 27.0879 0.906516L27.6244 1.97873C27.6965 2.12284 27.8337 2.22336 27.9928 2.24874L29.0912 2.42391C29.4853 2.48677 29.6506 2.96334 29.38 3.25669L28.5295 4.17867C28.4289 4.28768 28.3819 4.4357 28.4012 4.58274L28.5566 5.76642C28.6101 6.17472 28.1748 6.46912 27.8158 6.26733L26.8738 5.73782C26.7246 5.65397 26.5429 5.65224 26.3922 5.73324L25.3815 6.27629C25.0161 6.47261 24.5843 6.16431 24.6514 5.75499Z" stroke="#3A6339" stroke-width="0.5"/>
<path d="M38.1245 11.3766L38.33 10.1228C38.3557 9.96598 38.3053 9.80628 38.1942 9.69259L37.4057 8.88525C37.1219 8.59475 37.2845 8.10506 37.6857 8.04196L38.776 7.87045C38.9376 7.84504 39.0765 7.74221 39.148 7.59512L39.6642 6.53326C39.8454 6.16045 40.3755 6.1574 40.561 6.5281L41.0976 7.60032C41.1697 7.74442 41.3068 7.84494 41.466 7.87032L42.5643 8.04549C42.9585 8.10835 43.1237 8.58492 42.8531 8.87827L42.0026 9.80025C41.9021 9.90926 41.8551 10.0573 41.8744 10.2043L42.0297 11.388C42.0833 11.7963 41.6479 12.0907 41.289 11.8889L40.3469 11.3594C40.1978 11.2755 40.0161 11.2738 39.8653 11.3548L38.8546 11.8979C38.4892 12.0942 38.0575 11.7859 38.1245 11.3766Z" stroke="#3A6339" stroke-width="0.5"/>
<path d="M9.84083 11.3766L10.0463 10.1228C10.072 9.96598 10.0216 9.80628 9.91054 9.69259L9.122 8.88525C8.83825 8.59475 9.00084 8.10506 9.40199 8.04196L10.4923 7.87045C10.6539 7.84504 10.7928 7.74221 10.8643 7.59512L11.3805 6.53326C11.5617 6.16045 12.0918 6.1574 12.2773 6.5281L12.8139 7.60032C12.886 7.74442 13.0231 7.84494 13.1823 7.87032L14.2807 8.04549C14.6748 8.10835 14.84 8.58492 14.5694 8.87827L13.7189 9.80025C13.6184 9.90926 13.5714 10.0573 13.5907 10.2043L13.746 11.388C13.7996 11.7963 13.3643 12.0907 13.0053 11.8889L12.0633 11.3594C11.9141 11.2755 11.7324 11.2738 11.5816 11.3548L10.5709 11.8979C10.2055 12.0942 9.77376 11.7859 9.84083 11.3766Z" stroke="#3A6339" stroke-width="0.5"/>
<path d="M1.39552 22.2281L1.60096 20.9744C1.62666 20.8175 1.57627 20.6578 1.46523 20.5442L0.676683 19.7368C0.392941 19.4463 0.555531 18.9566 0.95668 18.8935L2.04701 18.722C2.20857 18.6966 2.3475 18.5938 2.419 18.4467L2.9352 17.3848C3.11642 17.012 3.64651 17.009 3.83202 17.3797L4.36857 18.4519C4.44069 18.596 4.57783 18.6965 4.73696 18.7219L5.83534 18.8971C6.22947 18.9599 6.39472 19.4365 6.12411 19.7298L5.27361 20.6518C5.17306 20.7608 5.12608 20.9088 5.14538 21.0559L5.30071 22.2396C5.35429 22.6479 4.91894 22.9423 4.55996 22.7405L3.61794 22.211C3.46876 22.1271 3.28705 22.1254 3.13629 22.2064L2.12559 22.7494C1.76021 22.9458 1.32845 22.6375 1.39552 22.2281Z" stroke="#3A6339" stroke-width="0.5"/>
<path d="M46.2193 22.2281L46.4247 20.9744C46.4504 20.8175 46.4 20.6578 46.289 20.5442L45.5004 19.7368C45.2167 19.4463 45.3793 18.9566 45.7804 18.8935L46.8707 18.722C47.0323 18.6966 47.1712 18.5938 47.2427 18.4467L47.7589 17.3848C47.9402 17.012 48.4702 17.009 48.6557 17.3797L49.1923 18.4519C49.2644 18.596 49.4016 18.6965 49.5607 18.7219L50.6591 18.8971C51.0532 18.9599 51.2184 19.4365 50.9478 19.7298L50.0973 20.6518C49.9968 20.7608 49.9498 20.9088 49.9691 21.0559L50.1244 22.2396C50.178 22.6479 49.7427 22.9423 49.3837 22.7405L48.4417 22.211C48.2925 22.1271 48.1108 22.1254 47.96 22.2064L46.9493 22.7494C46.5839 22.9458 46.1522 22.6375 46.2193 22.2281Z" stroke="#3A6339" stroke-width="0.5"/>
<path d="M11.2969 42.6216H40.2969" stroke="#3A6339"/>
<path d="M40.5963 32.0959C31.0585 32.0959 22.4273 36.1254 16.1963 42.6338" stroke="#3A6339" stroke-linecap="round"/>
<path d="M22.8174 41.8501L22.5099 41.4558L22.5099 41.4558L22.8174 41.8501ZM40.8203 36.1216C41.0964 36.1216 41.3203 35.8977 41.3203 35.6216C41.3203 35.3454 41.0964 35.1216 40.8203 35.1216V36.1216ZM23.1249 42.2443C28.0559 38.3985 34.1822 36.1216 40.8203 36.1216V35.1216C33.9485 35.1216 27.6078 37.4798 22.5099 41.4558L23.1249 42.2443ZM22.613 42.6527C22.7821 42.5147 22.9528 42.3786 23.1249 42.2443L22.5099 41.4558C22.332 41.5945 22.1556 41.7352 21.9808 41.8779L22.613 42.6527Z" fill="#3A6339"/>
<path d="M40.5963 39.2397C40.8724 39.2397 41.0963 39.0159 41.0963 38.7397C41.0963 38.4636 40.8724 38.2397 40.5963 38.2397V39.2397ZM26.4609 43.2974C30.5921 40.7206 35.4274 39.2397 40.5963 39.2397V38.2397C35.2331 38.2397 30.2155 39.777 25.9317 42.4489L26.4609 43.2974Z" fill="#3A6339"/>
<path d="M39.7962 41.731C40.0723 41.731 40.2962 41.5071 40.2962 41.231C40.2962 40.9548 40.0723 40.731 39.7962 40.731V41.731ZM31.1966 43.3572C33.8696 42.3063 36.7677 41.731 39.7962 41.731V40.731C36.64 40.731 33.6178 41.3307 30.8307 42.4266L31.1966 43.3572Z" fill="#3A6339"/>
<path d="M11.7963 32.0959C16.9377 32.0959 21.8157 33.2668 26.1963 35.3658" stroke="#3A6339" stroke-linecap="round"/>
<path d="M12.1964 36.7483C11.9203 36.7483 11.6964 36.5244 11.6964 36.2483C11.6964 35.9721 11.9203 35.7483 12.1964 35.7483V36.7483ZM21.631 38.3488C18.6692 37.311 15.4965 36.7483 12.1964 36.7483V35.7483C15.611 35.7483 18.8954 36.3306 21.9617 37.405L21.631 38.3488Z" fill="#3A6339"/>
<path d="M11.7964 39.2397C11.5203 39.2397 11.2964 39.0159 11.2964 38.7397C11.2964 38.4636 11.5203 38.2397 11.7964 38.2397V39.2397ZM19.0349 40.2396C16.729 39.5878 14.3022 39.2397 11.7964 39.2397V38.2397C14.3953 38.2397 16.9136 38.6007 19.3069 39.2773L19.0349 40.2396Z" fill="#3A6339"/>
<path d="M12.5959 41.731C12.3198 41.731 12.0959 41.5071 12.0959 41.231C12.0959 40.9548 12.3198 40.731 12.5959 40.731V41.731ZM16.9635 42.1375C15.547 41.8705 14.0873 41.731 12.5959 41.731V40.731C14.1499 40.731 15.6715 40.8763 17.1488 41.1548L16.9635 42.1375Z" fill="#3A6339"/>
<path d="M26.1509 31.2923C26.6495 28.9421 27.3812 28.1269 29.611 27.7004C29.3904 30.3707 28.5997 31.1199 26.1509 31.2923Z" stroke="#3A6339"/>
<path d="M26.0576 29.0208C25.9533 26.6166 26.4568 25.6327 28.5043 24.6216C28.9571 27.2601 28.38 28.1963 26.0576 29.0208Z" stroke="#3A6339"/>
<path d="M25.6562 31.2923C25.1576 28.9421 24.4259 28.1269 22.1961 27.7004C22.4167 30.3707 23.2074 31.1199 25.6562 31.2923Z" stroke="#3A6339"/>
<path d="M25.6345 28.5904C25.3906 26.1972 24.7507 25.3027 22.5803 24.6216C22.5137 27.3008 23.2194 28.1366 25.6345 28.5904Z" stroke="#3A6339"/>
<path d="M25.6562 28.7266V34.8841" stroke="#3A6339" stroke-linecap="round"/>
<path d="M40.5962 17.4216C36.8406 13.6661 30.7517 13.6661 26.9962 17.4216" stroke="#3A6339" stroke-linecap="round"/>
<path d="M38.8966 19.1213C36.0799 16.3047 31.5132 16.3047 28.6966 19.1213" stroke="#3A6339" stroke-linecap="round"/>
<path d="M35.4966 22.5215C34.5577 21.5826 33.0355 21.5826 32.0966 22.5215" stroke="#3A6339" stroke-linecap="round"/>
<path d="M37.1966 20.8215C35.3188 18.9438 32.2743 18.9438 30.3966 20.8215" stroke="#3A6339" stroke-linecap="round"/>
<circle cx="33.7962" cy="24.6216" r="0.7" stroke="#3A6339"/>
<path d="M40.2969 42.6216C40.2969 48.1444 34.0289 52.6216 26.2969 52.6216C18.5649 52.6216 12.2969 48.1444 12.2969 42.6216" stroke="#3A6339"/>
</svg>
