<svg width="39" height="38" viewBox="0 0 39 38" fill="none" xmlns="http://www.w3.org/2000/svg">
<path d="M13.5 19C16.7085 11.2844 19.3919 7.20909 24.758 0.87109C25.1487 0.409646 25.8603 0.401795 26.2605 0.855037C31.7217 7.04058 34.3843 11.1116 37.4698 18.9235C37.4897 18.9738 37.506 19.0275 37.5174 19.0804C38.5437 23.8406 38.6894 26.4412 36.5431 30.4205C36.5149 30.4728 36.4804 30.5244 36.4432 30.5706C32.5874 35.3544 30.1491 36.6228 25.5779 36.9938C25.5266 36.9979 25.4734 36.998 25.4222 36.994C21.7177 36.7042 19.7717 35.9219 16.5 33.5M1 19C4.43148 21.2998 6.3905 21.5132 9.45125 19.3955C9.78672 19.1634 10.2266 19.1424 10.5832 19.3406C11.8669 20.0541 12.7868 20.2802 14.2616 20.0417C14.4182 20.0163 14.565 19.9485 14.6926 19.8542C16.7242 18.353 18.0661 18.5408 20.5 19.5M1.5 23C5.21786 25.3288 7.27777 25.2013 11 23M15.5 25C17.2424 23.3816 18.3248 22.7152 20.7784 23.4326C20.9244 23.4753 21.0572 23.5553 21.1693 23.6582C22.5922 24.9645 23.5615 25.2368 25.2418 24.6022C25.4113 24.5382 25.5566 24.4217 25.6684 24.2791C26.8668 22.7504 27.7693 22.5569 29.5 23M1.5 27C3.93009 27.2343 4.9931 27.6833 6.5 29M10.5 27C12.1308 27.1863 13.0241 27.4547 14.2912 28.3495C14.4289 28.4467 14.5875 28.5139 14.7555 28.5265C17.3535 28.7209 18.5468 26.5 20 26.5C21.6692 26.2693 22.7396 26.6335 25 28.5M1 31.5C3.6834 30.7641 5.17112 30.0316 8 32C10.0244 33.2361 11.2091 33.256 13.0027 32.2845C13.3144 32.1157 13.691 32.108 14.009 32.2647C16.8747 33.6767 18.0821 32.8575 20 31" stroke="#3A6339"/>
</svg>
