<svg width="110" height="122" viewBox="0 0 110 122" fill="none" xmlns="http://www.w3.org/2000/svg">
    <defs>
        <filter id="filter0_bd_292_6930" x="0" y="0" width="109.188" height="122" filterUnits="userSpaceOnUse" color-interpolation-filters="sRGB">
            <feFlood flood-opacity="0" result="BackgroundImageFix"/>
            <feGaussianBlur in="BackgroundImageFix" stdDeviation="2"/>
            <feComposite in2="SourceAlpha" operator="in" result="effect1_backgroundBlur_292_6930"/>
            <feColorMatrix in="SourceAlpha" type="matrix" values="0 0 0 0 0 0 0 0 0 0 0 0 0 0 0 0 0 0 127 0" result="hardAlpha"/>
            <feOffset/>
            <feGaussianBlur stdDeviation="2.5"/>
            <feComposite in2="hardAlpha" operator="out"/>
            <feColorMatrix type="matrix" values="0 0 0 0 0.0614236 0 0 0 0 0.310416 0 0 0 0 0.508333 0 0 0 0.25 0"/>
            <feBlend mode="normal" in2="effect1_backgroundBlur_292_6930" result="effect2_dropShadow_292_6930"/>
            <feBlend mode="normal" in="SourceGraphic" in2="effect2_dropShadow_292_6930" result="shape"/>
        </filter>
        <linearGradient id="paint0_linear_292_6930" x1="54.5938" y1="6" x2="54.5938" y2="116" gradientUnits="userSpaceOnUse">
            <stop stop-color="#BEDEF5"/>
            <stop offset="0.494792" stop-color="#B8DAF3"/>
            <stop offset="1" stop-color="#70B2E2"/>
        </linearGradient>
        <linearGradient id="paint1_linear_292_6930" x1="54.5938" y1="6" x2="54.5938" y2="116" gradientUnits="userSpaceOnUse">
            <stop stop-color="#418FCD"/>
            <stop offset="1" stop-color="#BEDEF5"/>
        </linearGradient>
    </defs>
    <g filter="url(#filter0_bd_292_6930)">
<path fill-rule="evenodd" clip-rule="evenodd" d="M60.3885 50.7534H60.7608L61.0122 51.1776L60.7705 50.759L72.0636 44.2389L77.2457 24.8989C81.9601 21.9407 83.9957 22.354 86.4068 27.3536L83.9521 36.5147L96.5358 29.2495C102.411 31.2662 103.678 33.6404 102.683 39.8972L90.0995 47.1625L99.2606 49.6172C103.778 54.4764 102.703 56.3635 96.8059 58.7782L78.4838 53.8688L66.6542 60.6986L66.722 60.813L66.4623 61.2675L77.5831 67.6881L96.9231 62.506C101.842 65.1097 102.502 67.0792 99.3778 71.667L90.2168 74.1217L102.8 81.3869C103.991 87.4833 102.569 89.7681 96.653 92.0347L84.0693 84.7695L86.524 93.9305C84.5745 100.273 82.4029 100.285 77.3629 96.3852L72.4535 78.0631L60.6444 71.2451H60.3845L60.2693 84.2854L74.4272 98.4433C74.6319 104.005 73.2561 105.561 67.7208 105.15L61.0145 98.4433V112.974C56.3304 117.053 53.6404 116.964 48.7195 112.974V98.4433L42.0131 105.15C35.546 106.632 34.4492 104.758 35.3067 98.4433L48.7195 85.0306L48.8349 71.2451H48.5433L36.7342 78.0631L31.8248 96.3852C26.7848 100.285 24.6132 100.273 22.6637 93.9305L25.1184 84.7695L12.5347 92.0347C6.61856 89.7681 5.19622 87.4833 6.38717 81.3869L18.9709 74.1217L9.80985 71.667C6.68559 67.0792 7.34544 65.1097 12.2645 62.506L31.6046 67.6881L42.8772 61.1798V60.9753L30.7039 53.8688L12.3818 58.7782C6.48429 56.3635 5.40944 54.4764 9.92706 49.6172L19.0881 47.1625L6.50438 39.8972C5.50926 33.6404 6.77684 31.2662 12.6519 29.2495L25.2356 36.5147L22.7809 27.3536C25.1919 22.354 27.2275 21.9407 31.942 24.8989L37.1241 44.2389L48.4194 50.8369L48.4658 50.7534H48.8387V37.7146L34.6808 23.5567C34.4761 17.9948 35.8519 16.4385 41.3872 16.8503L48.0935 23.5567V9.02625C52.7776 4.9467 55.4675 5.03605 60.3885 9.02625V23.5567L67.0949 16.8503C73.562 15.3676 74.6587 17.242 73.8012 23.5567L60.3885 36.9694V50.7534Z" fill="url(#paint0_linear_292_6930)"/>
<path d="M60.7608 50.7534L61.6211 50.2436L61.3306 49.7534H60.7608V50.7534ZM60.3885 50.7534H59.3885V51.7534H60.3885V50.7534ZM61.0122 51.1776L60.1519 51.6874L61.8782 50.6776L61.0122 51.1776ZM60.7705 50.759L60.2705 49.893L59.4044 50.393L59.9044 51.259L60.7705 50.759ZM72.0636 44.2389L72.5636 45.105L72.9223 44.8979L73.0295 44.4978L72.0636 44.2389ZM77.2457 24.8989L76.7142 24.0519L76.3814 24.2607L76.2798 24.6401L77.2457 24.8989ZM86.4068 27.3536L87.3727 27.6124L87.4688 27.2537L87.3075 26.9193L86.4068 27.3536ZM83.9521 36.5147L82.9861 36.2559L82.3613 38.5878L84.4521 37.3807L83.9521 36.5147ZM96.5358 29.2495L96.8605 28.3036L96.43 28.1559L96.0358 28.3834L96.5358 29.2495ZM102.683 39.8972L103.183 40.7633L103.596 40.525L103.671 40.0543L102.683 39.8972ZM90.0995 47.1625L89.5995 46.2964L87.5088 47.5035L89.8407 48.1284L90.0995 47.1625ZM99.2606 49.6172L99.993 48.9363L99.7972 48.7257L99.5194 48.6512L99.2606 49.6172ZM96.8059 58.7782L96.5471 59.7441L96.8728 59.8314L97.1848 59.7036L96.8059 58.7782ZM78.4838 53.8688L78.7426 52.9029L78.3425 52.7957L77.9838 53.0028L78.4838 53.8688ZM66.6542 60.6986L66.1542 59.8326L65.2783 60.3383L65.7939 61.2084L66.6542 60.6986ZM66.722 60.813L67.5902 61.3091L67.879 60.8039L67.5823 60.3032L66.722 60.813ZM66.4623 61.2675L65.594 60.7713L65.1001 61.6357L65.9623 62.1335L66.4623 61.2675ZM77.5831 67.6881L77.0831 68.5541L77.4418 68.7612L77.8419 68.654L77.5831 67.6881ZM96.9231 62.506L97.3909 61.6221L97.0437 61.4384L96.6643 61.54L96.9231 62.506ZM99.3778 71.667L99.6366 72.6329L99.9953 72.5368L100.204 72.2299L99.3778 71.667ZM90.2168 74.1217L89.9579 73.1558L87.626 73.7806L89.7168 74.9877L90.2168 74.1217ZM102.8 81.3869L103.782 81.1952L103.695 80.7485L103.3 80.5209L102.8 81.3869ZM96.653 92.0347L96.153 92.9007L96.5657 93.139L97.0108 92.9685L96.653 92.0347ZM84.0693 84.7695L84.5693 83.9035L82.4785 82.6964L83.1033 85.0283L84.0693 84.7695ZM86.524 93.9305L87.4798 94.2244L87.5643 93.9495L87.4899 93.6717L86.524 93.9305ZM77.3629 96.3852L76.397 96.6441L76.4843 96.9698L76.7509 97.1761L77.3629 96.3852ZM72.4535 78.0631L73.4194 77.8043L73.3122 77.4042L72.9535 77.1971L72.4535 78.0631ZM60.6444 71.2451L61.1444 70.3791L60.9123 70.2451H60.6444V71.2451ZM60.3845 71.2451V70.2451H59.3933L59.3846 71.2363L60.3845 71.2451ZM60.2693 84.2854L59.2693 84.2766L59.2656 84.696L59.5622 84.9925L60.2693 84.2854ZM74.4272 98.4433L75.4265 98.4065L75.412 98.014L75.1343 97.7362L74.4272 98.4433ZM67.7208 105.15L67.0137 105.857L67.2763 106.119L67.6466 106.147L67.7208 105.15ZM61.0145 98.4433L61.7216 97.7362L60.0145 96.0291V98.4433H61.0145ZM61.0145 112.974L61.6712 113.728L62.0145 113.429V112.974H61.0145ZM48.7195 112.974H47.7195V113.45L48.0896 113.75L48.7195 112.974ZM48.7195 98.4433H49.7195V96.0291L48.0124 97.7362L48.7195 98.4433ZM42.0131 105.15L42.2366 106.124L42.5169 106.06L42.7202 105.857L42.0131 105.15ZM35.3067 98.4433L34.5996 97.7362L34.3612 97.9746L34.3158 98.3087L35.3067 98.4433ZM48.7195 85.0306L49.4266 85.7377L49.716 85.4483L49.7194 85.039L48.7195 85.0306ZM48.8349 71.2451L49.8349 71.2535L49.8433 70.2451H48.8349V71.2451ZM48.5433 71.2451V70.2451H48.2754L48.0433 70.3791L48.5433 71.2451ZM36.7342 78.0631L36.2342 77.1971L35.8754 77.4042L35.7682 77.8043L36.7342 78.0631ZM31.8248 96.3852L32.4367 97.1761L32.7034 96.9698L32.7907 96.6441L31.8248 96.3852ZM22.6637 93.9305L21.6978 93.6717L21.6234 93.9495L21.7078 94.2244L22.6637 93.9305ZM25.1184 84.7695L26.0843 85.0283L26.7092 82.6964L24.6184 83.9035L25.1184 84.7695ZM12.5347 92.0347L12.1769 92.9685L12.6219 93.139L13.0347 92.9007L12.5347 92.0347ZM6.38717 81.3869L5.88717 80.5209L5.49299 80.7485L5.40573 81.1952L6.38717 81.3869ZM18.9709 74.1217L19.4709 74.9877L21.5617 73.7806L19.2297 73.1558L18.9709 74.1217ZM9.80985 71.667L8.98331 72.2299L9.19233 72.5368L9.55103 72.6329L9.80985 71.667ZM12.2645 62.506L12.5234 61.54L12.1439 61.4384L11.7967 61.6221L12.2645 62.506ZM31.6046 67.6881L31.3457 68.654L31.7458 68.7612L32.1046 68.5541L31.6046 67.6881ZM42.8772 61.1798L43.3772 62.0459L43.8772 61.7572V61.1798H42.8772ZM42.8772 60.9753H43.8772V60.4012L43.3813 60.1117L42.8772 60.9753ZM30.7039 53.8688L31.208 53.0052L30.8479 52.795L30.445 52.9029L30.7039 53.8688ZM12.3818 58.7782L12.0028 59.7036L12.3149 59.8314L12.6406 59.7441L12.3818 58.7782ZM9.92706 49.6172L9.66824 48.6512L9.39048 48.7257L9.19468 48.9363L9.92706 49.6172ZM19.0881 47.1625L19.3469 48.1284L21.6789 47.5035L19.5881 46.2964L19.0881 47.1625ZM6.50438 39.8972L5.5168 40.0543L5.59166 40.525L6.00438 40.7633L6.50438 39.8972ZM12.6519 29.2495L13.1519 28.3834L12.7577 28.1559L12.3272 28.3036L12.6519 29.2495ZM25.2356 36.5147L24.7356 37.3807L26.8264 38.5878L26.2015 36.2559L25.2356 36.5147ZM22.7809 27.3536L21.8802 26.9193L21.7189 27.2537L21.815 27.6124L22.7809 27.3536ZM31.942 24.8989L32.9079 24.6401L32.8062 24.2607L32.4735 24.0519L31.942 24.8989ZM37.1241 44.2389L36.1582 44.4978L36.2646 44.895L36.6197 45.1024L37.1241 44.2389ZM48.4194 50.8369L47.915 51.7004L48.7973 52.2158L49.2936 51.3226L48.4194 50.8369ZM48.4658 50.7534V49.7534H47.8774L47.5917 50.2678L48.4658 50.7534ZM48.8387 50.7534V51.7534H49.8387V50.7534H48.8387ZM48.8387 37.7146H49.8387V37.3003L49.5458 37.0075L48.8387 37.7146ZM34.6808 23.5567L33.6815 23.5935L33.6959 23.986L33.9737 24.2638L34.6808 23.5567ZM41.3872 16.8503L42.0943 16.1432L41.8317 15.8806L41.4614 15.8531L41.3872 16.8503ZM48.0935 23.5567L47.3864 24.2638L49.0935 25.9709V23.5567H48.0935ZM48.0935 9.02625L47.4368 8.27216L47.0935 8.57109V9.02625H48.0935ZM60.3885 9.02625H61.3885V8.54967L61.0183 8.24951L60.3885 9.02625ZM60.3885 23.5567H59.3885V25.9709L61.0956 24.2638L60.3885 23.5567ZM67.0949 16.8503L66.8714 15.8756L66.5911 15.9399L66.3878 16.1432L67.0949 16.8503ZM73.8012 23.5567L74.5084 24.2638L74.7468 24.0254L74.7922 23.6913L73.8012 23.5567ZM60.3885 36.9694L59.6814 36.2623L59.3885 36.5552V36.9694H60.3885ZM60.7608 49.7534H60.3885V51.7534H60.7608V49.7534ZM61.8724 50.6678L61.6211 50.2436L59.9005 51.2632L60.1519 51.6874L61.8724 50.6678ZM61.8782 50.6776L61.6365 50.259L59.9044 51.259L60.1461 51.6776L61.8782 50.6776ZM61.2705 51.625L72.5636 45.105L71.5636 43.3729L60.2705 49.893L61.2705 51.625ZM73.0295 44.4978L78.2116 25.1578L76.2798 24.6401L71.0976 43.9801L73.0295 44.4978ZM77.7772 25.746C80.1496 24.2573 81.4976 23.8689 82.4419 24.1108C83.3589 24.3457 84.3007 25.2887 85.506 27.788L87.3075 26.9193C86.1018 24.419 84.8203 22.6555 82.9381 22.1734C81.0833 21.6982 79.0562 22.5823 76.7142 24.0519L77.7772 25.746ZM85.4408 27.0948L82.9861 36.2559L84.918 36.7735L87.3727 27.6124L85.4408 27.0948ZM84.4521 37.3807L97.0358 30.1155L96.0358 28.3834L83.4521 35.6487L84.4521 37.3807ZM96.2111 30.1953C99.0978 31.1862 100.579 32.1831 101.317 33.4782C102.063 34.7884 102.188 36.6449 101.696 39.7402L103.671 40.0543C104.174 36.8928 104.163 34.4338 103.055 32.4885C101.939 30.5281 99.8488 29.3295 96.8605 28.3036L96.2111 30.1953ZM102.183 39.0312L89.5995 46.2964L90.5995 48.0285L103.183 40.7633L102.183 39.0312ZM89.8407 48.1284L99.0018 50.5831L99.5194 48.6512L90.3584 46.1965L89.8407 48.1284ZM98.5282 50.298C99.6339 51.4873 100.337 52.4325 100.715 53.2009C101.086 53.9544 101.103 54.4457 100.986 54.8101C100.862 55.2003 100.519 55.6549 99.7452 56.188C98.9755 56.7186 97.8819 57.257 96.427 57.8528L97.1848 59.7036C98.6786 59.092 99.931 58.489 100.88 57.8348C101.826 57.1831 102.575 56.4095 102.891 55.4187C103.216 54.4021 103.023 53.3596 102.509 52.3171C102.003 51.2895 101.146 50.1766 99.993 48.9363L98.5282 50.298ZM97.0647 57.8123L78.7426 52.9029L78.225 54.8347L96.5471 59.7441L97.0647 57.8123ZM77.9838 53.0028L66.1542 59.8326L67.1542 61.5646L78.9838 54.7348L77.9838 53.0028ZM67.5823 60.3032L67.5145 60.1888L65.7939 61.2084L65.8617 61.3228L67.5823 60.3032ZM67.3305 61.7636L67.5902 61.3091L65.8538 60.3168L65.594 60.7713L67.3305 61.7636ZM65.9623 62.1335L77.0831 68.5541L78.0831 66.8221L66.9623 60.4015L65.9623 62.1335ZM77.8419 68.654L97.1819 63.4719L96.6643 61.54L77.3243 66.7222L77.8419 68.654ZM96.4553 63.3898C98.9307 64.7 99.9411 65.6732 100.204 66.6119C100.459 67.5235 100.113 68.8107 98.5513 71.1041L100.204 72.2299C101.767 69.9356 102.653 67.944 102.13 66.073C101.614 64.229 99.8347 62.9156 97.3909 61.6221L96.4553 63.3898ZM99.119 70.7011L89.9579 73.1558L90.4756 75.0876L99.6366 72.6329L99.119 70.7011ZM89.7168 74.9877L102.3 82.253L103.3 80.5209L90.7168 73.2557L89.7168 74.9877ZM101.819 81.5787C102.404 84.5741 102.282 86.3556 101.529 87.6418C100.767 88.9431 99.222 89.9796 96.2952 91.1009L97.0108 92.9685C100 91.8232 102.124 90.584 103.255 88.6521C104.395 86.7052 104.388 84.2961 103.782 81.1952L101.819 81.5787ZM97.153 91.1687L84.5693 83.9035L83.5693 85.6355L96.153 92.9007L97.153 91.1687ZM83.1033 85.0283L85.558 94.1894L87.4899 93.6717L85.0352 84.5107L83.1033 85.0283ZM85.5681 93.6367C85.091 95.1889 84.6238 96.2701 84.1476 96.9822C83.6807 97.6803 83.2634 97.9402 82.8896 98.0215C82.4894 98.1087 81.9242 98.039 81.0757 97.6357C80.2314 97.2343 79.2183 96.5565 77.9749 95.5944L76.7509 97.1761C78.0275 98.164 79.1759 98.9471 80.2171 99.442C81.2542 99.935 82.2988 100.197 83.3151 99.9757C84.358 99.7487 85.1641 99.06 85.8101 98.094C86.4469 97.1418 86.9822 95.8432 87.4798 94.2244L85.5681 93.6367ZM78.3288 96.1264L73.4194 77.8043L71.4876 78.3219L76.397 96.6441L78.3288 96.1264ZM72.9535 77.1971L61.1444 70.3791L60.1444 72.1111L71.9535 78.9292L72.9535 77.1971ZM60.3845 72.2451H60.6444V70.2451H60.3845V72.2451ZM59.3846 71.2363L59.2693 84.2766L61.2693 84.2943L61.3845 71.2539L59.3846 71.2363ZM59.5622 84.9925L73.7201 99.1504L75.1343 97.7362L60.9764 83.5783L59.5622 84.9925ZM73.4278 98.4801C73.5308 101.279 73.1932 102.641 72.5116 103.337C71.8497 104.014 70.5621 104.358 67.795 104.152L67.6466 106.147C70.4148 106.353 72.5827 106.125 73.9413 104.736C75.2803 103.367 75.5282 101.17 75.4265 98.4065L73.4278 98.4801ZM68.4279 104.443L61.7216 97.7362L60.3073 99.1504L67.0137 105.857L68.4279 104.443ZM60.0145 98.4433V112.974H62.0145V98.4433H60.0145ZM60.3577 112.22C58.0562 114.224 56.4521 115.009 54.9618 115C53.454 114.991 51.7837 114.171 49.3493 112.197L48.0896 113.75C50.5762 115.767 52.7113 116.987 54.9498 117C57.2057 117.013 59.2887 115.803 61.6712 113.728L60.3577 112.22ZM49.7195 112.974V98.4433H47.7195V112.974H49.7195ZM48.0124 97.7362L41.306 104.443L42.7202 105.857L49.4266 99.1504L48.0124 97.7362ZM41.7896 104.175C40.2069 104.538 39.0369 104.674 38.1822 104.618C37.3441 104.562 36.9104 104.331 36.653 104.048C36.3774 103.745 36.1552 103.22 36.0802 102.284C36.0056 101.352 36.0861 100.136 36.2976 98.5779L34.3158 98.3087C34.0986 99.9082 33.9946 101.294 34.0866 102.443C34.1782 103.588 34.4736 104.624 35.1734 105.393C35.8914 106.183 36.8909 106.537 38.0505 106.613C39.1935 106.689 40.5858 106.503 42.2366 106.124L41.7896 104.175ZM36.0138 99.1504L49.4266 85.7377L48.0124 84.3235L34.5996 97.7362L36.0138 99.1504ZM49.7194 85.039L49.8349 71.2535L47.8349 71.2367L47.7195 85.0222L49.7194 85.039ZM48.5433 72.2451H48.8349V70.2451H48.5433V72.2451ZM48.0433 70.3791L36.2342 77.1971L37.2342 78.9292L49.0433 72.1111L48.0433 70.3791ZM35.7682 77.8043L30.8588 96.1264L32.7907 96.6441L37.7001 78.3219L35.7682 77.8043ZM31.2128 95.5944C29.9694 96.5565 28.9563 97.2343 28.1119 97.6357C27.2634 98.039 26.6983 98.1087 26.298 98.0215C25.9243 97.9402 25.507 97.6803 25.04 96.9822C24.5639 96.2701 24.0967 95.1889 23.6196 93.6367L21.7078 94.2244C22.2055 95.8432 22.7408 97.1418 23.3776 98.094C24.0236 99.06 24.8297 99.7487 25.8725 99.9757C26.8888 100.197 27.9335 99.935 28.9706 99.442C30.0118 98.9471 31.1601 98.164 32.4367 97.1761L31.2128 95.5944ZM23.6296 94.1894L26.0843 85.0283L24.1525 84.5107L21.6978 93.6717L23.6296 94.1894ZM24.6184 83.9035L12.0347 91.1687L13.0347 92.9007L25.6184 85.6355L24.6184 83.9035ZM12.8924 91.1009C9.96567 89.9796 8.42046 88.9431 7.6588 87.6418C6.90594 86.3556 6.78345 84.5741 7.36862 81.5787L5.40573 81.1952C4.79995 84.2961 4.79314 86.7052 5.93274 88.6521C7.06354 90.584 9.18756 91.8232 12.1769 92.9685L12.8924 91.1009ZM6.88717 82.253L19.4709 74.9877L18.4709 73.2557L5.88717 80.5209L6.88717 82.253ZM19.2297 73.1558L10.0687 70.7011L9.55103 72.6329L18.7121 75.0876L19.2297 73.1558ZM10.6364 71.1041C9.07455 68.8107 8.72886 67.5235 8.98395 66.6119C9.24661 65.6732 10.257 64.7 12.7324 63.3898L11.7967 61.6221C9.35301 62.9156 7.5739 64.229 7.05793 66.073C6.53438 67.944 7.42089 69.9356 8.98331 72.2299L10.6364 71.1041ZM12.0057 63.4719L31.3457 68.654L31.8634 66.7222L12.5234 61.54L12.0057 63.4719ZM32.1046 68.5541L43.3772 62.0459L42.3772 60.3138L31.1046 66.8221L32.1046 68.5541ZM41.8772 60.9753V61.1798H43.8772V60.9753H41.8772ZM43.3813 60.1117L31.208 53.0052L30.1997 54.7324L42.373 61.8389L43.3813 60.1117ZM30.445 52.9029L12.1229 57.8123L12.6406 59.7441L30.9627 54.8347L30.445 52.9029ZM12.7607 57.8528C11.3057 57.257 10.2122 56.7186 9.44243 56.188C8.66887 55.6549 8.32599 55.2003 8.20132 54.8101C8.08492 54.4457 8.10128 53.9544 8.47246 53.2009C8.85101 52.4325 9.55379 51.4873 10.6594 50.298L9.19468 48.9363C8.04152 50.1766 7.18455 51.2895 6.67835 52.3171C6.16478 53.3596 5.97139 54.4021 6.29618 55.4187C6.6127 56.4095 7.36196 57.1831 8.30743 57.8348C9.25667 58.489 10.509 59.092 12.0028 59.7036L12.7607 57.8528ZM10.1859 50.5831L19.3469 48.1284L18.8293 46.1965L9.66824 48.6512L10.1859 50.5831ZM19.5881 46.2964L7.00438 39.0312L6.00438 40.7633L18.5881 48.0285L19.5881 46.2964ZM7.49197 39.7402C6.99967 36.6449 7.12472 34.7884 7.87081 33.4782C8.60827 32.1831 10.0899 31.1862 12.9766 30.1953L12.3272 28.3036C9.33886 29.3295 7.24913 30.5281 6.13283 32.4885C5.02514 34.4338 5.01397 36.8928 5.5168 40.0543L7.49197 39.7402ZM12.1519 30.1155L24.7356 37.3807L25.7356 35.6487L13.1519 28.3834L12.1519 30.1155ZM26.2015 36.2559L23.7468 27.0948L21.815 27.6124L24.2697 36.7735L26.2015 36.2559ZM23.6816 27.788C24.8869 25.2887 25.8288 24.3457 26.7458 24.1108C27.6901 23.8689 29.0381 24.2573 31.4105 25.746L32.4735 24.0519C30.1314 22.5823 28.1044 21.6982 26.2495 22.1734C24.3674 22.6555 23.0859 24.419 21.8802 26.9193L23.6816 27.788ZM30.976 25.1578L36.1582 44.4978L38.09 43.9801L32.9079 24.6401L30.976 25.1578ZM36.6197 45.1024L47.915 51.7004L48.9238 49.9734L37.6285 43.3755L36.6197 45.1024ZM47.5917 50.2678L47.5453 50.3513L49.2936 51.3226L49.34 51.2391L47.5917 50.2678ZM48.8387 49.7534H48.4658V51.7534H48.8387V49.7534ZM49.8387 50.7534V37.7146H47.8387V50.7534H49.8387ZM49.5458 37.0075L35.3879 22.8496L33.9737 24.2638L48.1316 38.4217L49.5458 37.0075ZM35.6801 23.5199C35.5771 20.7211 35.9148 19.3595 36.5964 18.6626C37.2583 17.9859 38.5459 17.6417 41.313 17.8476L41.4614 15.8531C38.6932 15.6472 36.5252 15.8752 35.1666 17.2641C33.8277 18.6329 33.5798 20.8304 33.6815 23.5935L35.6801 23.5199ZM40.6801 17.5574L47.3864 24.2638L48.8006 22.8496L42.0943 16.1432L40.6801 17.5574ZM49.0935 23.5567V9.02625H47.0935V23.5567H49.0935ZM48.7503 9.78035C51.0518 7.77586 52.6559 6.99119 54.1462 7.00007C55.654 7.00906 57.3242 7.82899 59.7587 9.80299L61.0183 8.24951C58.5318 6.23331 56.3966 5.01346 54.1582 5.00011C51.9023 4.98666 49.8193 6.19709 47.4368 8.27216L48.7503 9.78035ZM59.3885 9.02625V23.5567H61.3885V9.02625H59.3885ZM61.0956 24.2638L67.802 17.5574L66.3878 16.1432L59.6814 22.8496L61.0956 24.2638ZM67.3184 17.825C68.9011 17.4622 70.0711 17.3261 70.9258 17.3825C71.7639 17.4378 72.1976 17.6693 72.4549 17.9523C72.7306 18.2553 72.9528 18.7796 73.0278 19.7161C73.1023 20.648 73.0219 21.8643 72.8103 23.4221L74.7922 23.6913C75.0094 22.0918 75.1134 20.7057 75.0214 19.5565C74.9298 18.4119 74.6344 17.3762 73.9346 16.6067C73.2166 15.8171 72.2171 15.4633 71.0574 15.3868C69.9145 15.3115 68.5222 15.4972 66.8714 15.8756L67.3184 17.825ZM73.0941 22.8496L59.6814 36.2623L61.0956 37.6765L74.5084 24.2638L73.0941 22.8496ZM59.3885 36.9694V50.7534H61.3885V36.9694H59.3885Z" fill="url(#paint1_linear_292_6930)"/>
</g>
</svg>
