<svg width="39" height="40" viewBox="0 0 39 40" fill="none" xmlns="http://www.w3.org/2000/svg">
<path d="M3.5 23.1105C1.9949 22.1292 1 20.4308 1 18.5C1 15.4624 3.46243 13 6.5 13C6.66854 13 6.83532 13.0076 7 13.0224" stroke="#3A6339"/>
<path d="M7 13.5C7 10.4624 9.46243 8 12.5 8" stroke="#3A6339"/>
<path d="M12.2764 8.21556C13.2991 4.07227 17.0407 1 21.4999 1C26.2362 1 30.163 4.46602 30.8822 9" stroke="#3A6339"/>
<path d="M30.5 9C34.6421 9 38 12.3579 38 16.5C38 19.4938 36.2459 22.0779 33.7094 23.2806" stroke="#3A6339"/>
<path d="M34 23.0007C34.6409 20.9445 34.4432 20.2911 32.5 20.5007L26.5747 21.982C26.525 21.9945 26.4738 22.003 26.4228 22.0081C25.1643 22.134 24.4763 22.4768 23.8037 23.4949C23.6031 23.7986 23.2741 24.0007 22.9101 24.0007H14.8257C14.1614 24.0007 13.6817 23.3648 13.8642 22.726L14.5 20.5007C14.7803 18.9108 14.2408 18.6782 12.5 19.0003L6.72189 20.4448C6.57585 20.4814 6.43994 20.5504 6.32429 20.6467L3.5 23L3 23.5" stroke="#3A6339"/>
<path d="M11 26.0001C11 27.9331 9.433 29.5001 7.5 29.5001C5.567 29.5001 4 27.9331 4 26.0001C4 24.6039 4.81753 23.3986 6 22.8369" stroke="#3A6339"/>
<path d="M5.5 23L10.7936 21.4876C11.5427 21.2735 12.238 21.9605 12.033 22.7122L11 26.5" stroke="#3A6339"/>
<path d="M31 27.0001C31 28.9331 29.433 30.5001 27.5 30.5001C25.567 30.5001 24 28.9331 24 27.0001C24 25.6039 24.8175 24.3986 26 23.8369" stroke="#3A6339"/>
<path d="M25.5 24L30.7936 22.4876C31.5427 22.2735 32.238 22.9605 32.033 23.7122L31 27.5" stroke="#3A6339"/>
<path d="M16.2941 30.3531C16.2941 31.2627 15.5567 32.0001 14.6471 32.0001C13.7374 32.0001 13 31.2627 13 30.3531C13 29.696 13.3847 29.1288 13.9412 28.8645" stroke="#3A6339"/>
<path d="M13.7059 28.9412L15.2935 28.4876C16.0427 28.2735 16.738 28.9605 16.533 29.7122L16.2941 30.5882" stroke="#3A6339"/>
<path d="M22.7647 36.1179C22.7647 37.7098 21.4742 39.0003 19.8824 39.0003C18.2905 39.0003 17 37.7098 17 36.1179C17 34.9681 17.6733 33.9755 18.6471 33.5129" stroke="#3A6339"/>
<path d="M18.2354 33.6471L22.2936 32.4876C23.0428 32.2735 23.7381 32.9605 23.5331 33.7122L22.7648 36.5294" stroke="#3A6339"/>
</svg>
