<svg width="35" height="43" viewBox="0 0 35 43" fill="none" xmlns="http://www.w3.org/2000/svg">
<circle cx="25.3518" cy="32.7026" r="9.14863" stroke="#3A6339"/>
<path d="M18.8203 26.0135C17.7254 24.7628 16.1171 23.9729 14.3243 23.9729C11.0255 23.9729 8.35133 26.6471 8.35133 29.9459C8.35133 33.2446 11.0255 35.9188 14.3243 35.9188C15.1399 35.9188 15.9174 35.7553 16.6256 35.4594" stroke="#3A6339"/>
<path d="M19.3783 25.5863C18.1875 23.5234 15.9586 22.135 13.4054 22.135C9.5991 22.135 6.5135 25.2206 6.5135 29.0269C6.5135 32.8332 9.5991 35.9188 13.4054 35.9188C14.5037 35.9188 15.5419 35.6619 16.4634 35.2049" stroke="#3A6339"/>
<circle cx="25.8104" cy="33.162" r="3.17567" stroke="#3A6339"/>
<circle cx="25.8105" cy="34.081" r="2.25675" stroke="#3A6339"/>
<path d="M29.486 5.59458C29.486 3.05707 27.429 1 24.8915 1C22.3539 1 20.2969 3.05707 20.2969 5.59458" stroke="#3A6339"/>
<path d="M20.2969 5.59473V24.892" stroke="#3A6339"/>
<path d="M29.4864 5.59448V24.4323" stroke="#3A6339"/>
<path d="M26.3108 5.59448C26.3108 5.31834 26.0869 5.09448 25.8108 5.09448C25.5346 5.09448 25.3108 5.31834 25.3108 5.59448H26.3108ZM25.3108 5.59448V30.4052H26.3108V5.59448H25.3108Z" fill="#3A6339"/>
<path d="M23.0537 9.68921C22.7776 9.68921 22.5537 9.91307 22.5537 10.1892C22.5537 10.4654 22.7776 10.6892 23.0537 10.6892V9.68921ZM25.8105 9.68921H23.0537V10.6892H25.8105V9.68921Z" fill="#3A6339"/>
<path d="M23.0537 14.2837C22.7776 14.2837 22.5537 14.5075 22.5537 14.7837C22.5537 15.0598 22.7776 15.2837 23.0537 15.2837V14.2837ZM25.8105 14.2837H23.0537V15.2837H25.8105V14.2837Z" fill="#3A6339"/>
<path d="M27.6486 17.1216C27.9247 17.1216 28.1486 16.8977 28.1486 16.6216C28.1486 16.3454 27.9247 16.1216 27.6486 16.1216V17.1216ZM25.8108 17.1216H27.6486V16.1216H25.8108V17.1216Z" fill="#3A6339"/>
<path d="M27.6486 21.7161C27.9247 21.7161 28.1486 21.4922 28.1486 21.2161C28.1486 20.9399 27.9247 20.7161 27.6486 20.7161V21.7161ZM25.8108 21.7161H27.6486V20.7161H25.8108V21.7161Z" fill="#3A6339"/>
<path d="M16.6221 21.2163L17.541 19.8379" stroke="#3A6339" stroke-linecap="round"/>
<path d="M13.126 20.9241L13.1996 16.6215" stroke="#3A6339" stroke-linecap="round"/>
<path d="M10.3325 21.6701L9.26985 19.8377" stroke="#3A6339" stroke-linecap="round"/>
<path d="M7.40429 22.88L4.67582 20.2972" stroke="#3A6339" stroke-linecap="round"/>
<path d="M5.5331 25.7188L3.29729 24.8919" stroke="#3A6339" stroke-linecap="round"/>
<path d="M4.67567 29.027L0.999925 29.0267" stroke="#3A6339" stroke-linecap="round"/>
<path d="M7.18927 35.3506L4.67517 38.0321" stroke="#3A6339" stroke-linecap="round"/>
<path d="M13.4055 37.2971L13.4054 41.4323" stroke="#3A6339" stroke-linecap="round"/>
<path d="M5.38847 32.1607L3.29698 33.162" stroke="#3A6339" stroke-linecap="round"/>
<path d="M10.1893 36.8375L9.72971 38.216" stroke="#3A6339" stroke-linecap="round"/>
<path d="M23.0537 17.9595C22.7776 17.9595 22.5537 18.1833 22.5537 18.4595C22.5537 18.7356 22.7776 18.9595 23.0537 18.9595V17.9595ZM25.8105 17.9595H23.0537V18.9595H25.8105V17.9595Z" fill="#3A6339"/>
</svg>
