<svg width="40" height="38" viewBox="0 0 40 38" fill="none" xmlns="http://www.w3.org/2000/svg">
<path d="M9.20454 27.7729C4.6733 27.7729 1 24.0996 1 19.5684C1 15.4512 4.03259 12.0424 7.98588 11.4537C8.11455 11.4346 8.2442 11.4184 8.37474 11.4053" stroke="#3A6339" stroke-linecap="round"/>
<path d="M8.0194 11.4868C7.94679 11.0246 7.90909 10.5508 7.90909 10.0682C7.90909 5.05996 11.9691 1 16.9773 1C21.2415 1 24.8182 3.94326 25.7868 7.90909" stroke="#3A6339" stroke-linecap="round"/>
<path d="M25.6133 7.66269C26.6892 7.26351 27.853 7.04541 29.0678 7.04541C34.553 7.04541 38.9996 11.492 38.9996 16.9772C38.9996 22.0234 35.2364 26.1905 30.3633 26.8253" stroke="#3A6339" stroke-linecap="round"/>
<path d="M9.2041 27.7727H25.1814" stroke="#3A6339" stroke-linecap="round"/>
<path d="M20.1453 21.045C20.0071 21.284 20.0887 21.5899 20.3278 21.7281C20.5668 21.8664 20.8727 21.7847 21.0109 21.5457L20.1453 21.045ZM28.1368 23.4544C28.1368 25.5631 26.4273 27.2726 24.3186 27.2726V28.2726C26.9796 28.2726 29.1368 26.1154 29.1368 23.4544H28.1368ZM24.3186 19.6362C26.4273 19.6362 28.1368 21.3457 28.1368 23.4544H29.1368C29.1368 20.7934 26.9796 18.6362 24.3186 18.6362V19.6362ZM21.0109 21.5457C21.6719 20.4031 22.906 19.6362 24.3186 19.6362V18.6362C22.5346 18.6362 20.9777 19.6061 20.1453 21.045L21.0109 21.5457Z" fill="#3A6339"/>
<path d="M16.8765 24.1761C18.4904 23.4039 19.1311 21.3828 18.3077 19.6617C17.4842 17.9407 15.5084 17.1715 13.8945 17.9437C12.8129 18.4612 12.1684 19.5397 12.1088 20.7129" stroke="#3A6339" stroke-linecap="round"/>
<path d="M10.5 24.3181H16.5455" stroke="#3A6339" stroke-linecap="round"/>
<path d="M19.4673 29.8476C21.0812 30.6198 21.7219 32.6409 20.8985 34.3619C20.075 36.083 18.0992 36.8522 16.4853 36.08C15.4037 35.5625 14.7592 34.484 14.6996 33.3108" stroke="#3A6339" stroke-linecap="round"/>
<path d="M13.0909 29.7053H19.1364" stroke="#3A6339" stroke-linecap="round"/>
<path d="M28.1149 29.7816C29.1562 30.2798 29.5697 31.5839 29.0383 32.6944C28.507 33.8048 27.2321 34.3012 26.1908 33.8029C25.4929 33.469 25.0771 32.7731 25.0386 32.0161" stroke="#3A6339" stroke-linecap="round"/>
<path d="M24 29.6897H27.9007" stroke="#3A6339" stroke-linecap="round"/>
</svg>
