<svg width="30" height="34" viewBox="0 0 30 34" fill="none" xmlns="http://www.w3.org/2000/svg">
<path d="M4.73848 10.2804L1.03754 30.43C0.874075 32.2565 1.1981 32.9028 2.93603 32.8993C3.04023 32.8991 3.14374 32.8798 3.24216 32.8456L11.7836 29.8746C12.2309 29.719 12.726 29.8985 12.9696 30.3046L13.4129 31.0433C13.635 31.4135 14.0695 31.5994 14.4906 31.5043L25.8838 28.9316C26.2769 28.8429 26.5783 28.5268 26.6483 28.13L28.8704 15.5384C28.9473 15.1026 28.7286 14.6681 28.3328 14.4702L26.2002 13.4039C25.895 13.2513 25.6887 12.9535 25.6529 12.6142L24.9249 5.69791C24.9009 5.47012 24.7995 5.25746 24.6375 5.09549L23.6542 4.11218" stroke="#3A6339" stroke-linecap="round"/>
<path d="M9.67287 5.34584L10.2979 2.5331C10.4098 2.02958 10.8863 1.69378 11.3981 1.75775L13.785 2.05611" stroke="#3A6339" stroke-linecap="round"/>
<circle cx="18.7196" cy="3.28972" r="2.78972" stroke="#3A6339"/>
<circle cx="18.7201" cy="3.28972" r="0.5" stroke="#3A6339" stroke-width="0.644862"/>
<path d="M18.7198 6.16821V9.04672" stroke="#3A6339" stroke-linecap="round"/>
<circle cx="11.318" cy="10.6916" r="2.78972" stroke="#3A6339"/>
<circle cx="11.3185" cy="10.6916" r="0.5" stroke="#3A6339" stroke-width="0.644862"/>
<path d="M11.3182 13.5701V16.4486" stroke="#3A6339" stroke-linecap="round"/>
<circle cx="19.5417" cy="20.5607" r="2.78972" stroke="#3A6339"/>
<circle cx="19.5412" cy="20.5607" r="0.5" stroke="#3A6339" stroke-width="0.644862"/>
<path d="M19.542 23.4392V26.3177" stroke="#3A6339" stroke-linecap="round"/>
</svg>
