<svg width="47" height="44" viewBox="0 0 47 44" fill="none" xmlns="http://www.w3.org/2000/svg">
<path d="M1.5 23.5012C2.18156 23.5077 2.84772 23.5166 3.5 23.5282M35.5 29.0012C23.073 24.9221 15.724 23.7467 3.5 23.5282M31 31.5012C21.5886 27.2877 15.6432 25.5815 5.5 23.8595M3.5 23.5282C4.18518 23.6392 4.85118 23.7494 5.5 23.8595M25.5 35.0012C19.5443 30.0564 15.3308 27.574 8 24.7819M5.5 23.8595C6.37409 24.173 7.20536 24.4793 8 24.7819M20.5 37.5012C17.4405 32.092 14.539 29.3421 8 24.7819M46 23.0012C45.4852 22.9699 44.9857 22.9419 44.5 22.9173M26.6816 24.7819C33.2995 22.929 37.4668 22.5612 44.5 22.9173M44.5 22.9173C43.9058 23.0124 43.3425 23.1045 42.805 23.195M32 26.0013C35.7165 24.5786 38.3884 23.9385 42.805 23.195M42.805 23.195C42.3429 23.3527 41.9099 23.5024 41.5 23.6481M35 27.0013C37.2153 25.3443 38.8848 24.5778 41.5 23.6481M41.5 23.6481C39.8725 24.9337 38.945 25.6301 38 28.0013M13 23.5013C13.2916 23.3959 13.5783 23.2938 13.8607 23.195M33 23.0013C24.9971 20.342 20.7202 20.794 13.8607 23.195M13.8607 23.195C14.4484 23.0958 15.0079 23.0026 15.5451 22.9173M27.5 23.5013C22.8401 22.0517 19.9388 22.2196 15.5451 22.9173M15.5451 22.9173C18.8723 22.8754 20.6728 22.9886 23.5 24.0014M24.5 20.0014C25.3169 13.2281 26.6624 9.96778 30.5 5.00142M25 12.5014C23.701 10.1393 27.3993 1.85509 32.158 1.06124C32.6393 0.980954 33.052 1.35654 33.1137 1.84053C34.0603 9.26586 32.7262 12.1302 26 13.5015M24.5 18.0015C23.5432 14.3884 22.5067 12.5107 19.5 9.50146M23 15.5015C17.8065 14.8215 15.7692 12.9801 15.0913 6.07124C15.0348 5.49522 15.4935 4.99323 16.0711 5.0302C20.4367 5.30965 21.9783 7.63471 23.5 13.5015" stroke="#3A6339" stroke-linecap="round"/>
<path d="M46 23.5015C46 33.9949 35.9264 42.5015 23.5 42.5015C11.0736 42.5015 1 33.9949 1 23.5015" stroke="#3A6339"/>
</svg>
