<svg width="41" height="36" viewBox="0 0 41 36" fill="none" xmlns="http://www.w3.org/2000/svg">
<path d="M14 31.5C14.5044 29.2099 15.2445 28.4156 17.5 28C17.2769 30.6019 16.477 31.332 14 31.5Z" stroke="#3A6339"/>
<path d="M26 31.5C26.5044 29.2099 27.2445 28.4156 29.5 28C29.2769 30.6019 28.477 31.332 26 31.5Z" stroke="#3A6339"/>
<path d="M36 31.5C36.5044 29.2099 37.2445 28.4156 39.5 28C39.2769 30.6019 38.477 31.332 36 31.5Z" stroke="#3A6339"/>
<path d="M36 26.5C36.5044 24.2099 37.2445 23.4156 39.5 23C39.2769 25.6019 38.477 26.332 36 26.5Z" stroke="#3A6339"/>
<path d="M36 21.5C36.5044 19.2099 37.2445 18.4156 39.5 18C39.2769 20.6019 38.477 21.332 36 21.5Z" stroke="#3A6339"/>
<path d="M26 25.5C26.5044 23.2099 27.2445 22.4156 29.5 22C29.2769 24.6019 28.477 25.332 26 25.5Z" stroke="#3A6339"/>
<path d="M12.5 31.5C11.9956 29.2099 11.2555 28.4156 9 28C9.22309 30.6019 10.023 31.332 12.5 31.5Z" stroke="#3A6339"/>
<path d="M24.5 31.5C23.9956 29.2099 23.2555 28.4156 21 28C21.2231 30.6019 22.023 31.332 24.5 31.5Z" stroke="#3A6339"/>
<path d="M34.5 31.5C33.9956 29.2099 33.2555 28.4156 31 28C31.2231 30.6019 32.023 31.332 34.5 31.5Z" stroke="#3A6339"/>
<path d="M34.5 26.5C33.9956 24.2099 33.2555 23.4156 31 23C31.2231 25.6019 32.023 26.332 34.5 26.5Z" stroke="#3A6339"/>
<path d="M13.5 29V35" stroke="#3A6339" stroke-linecap="round"/>
<path d="M25 24L25 35" stroke="#3A6339" stroke-linecap="round"/>
<path d="M35 21L35 35" stroke="#3A6339" stroke-linecap="round"/>
<rect x="0.5" y="4.5" width="12" height="19" rx="1.5" stroke="#3A6339"/>
<path d="M15 9.5H23.5C24.6046 9.5 25.5 10.3954 25.5 11.5V20" stroke="#3A6339" stroke-linecap="round" stroke-dasharray="2 2"/>
<path d="M37.6569 4.82837C34.9902 2.1617 30.6667 2.1617 28 4.82837" stroke="#3A6339" stroke-width="0.54"/>
<path d="M36.4503 6.0354C34.4503 4.0354 31.2076 4.0354 29.2076 6.0354" stroke="#3A6339" stroke-width="0.54"/>
<path d="M34.0359 8.44971C33.3692 7.78304 32.2883 7.78304 31.6216 8.44971" stroke="#3A6339" stroke-width="0.54"/>
<path d="M35.2431 7.24268C33.9097 5.90934 31.748 5.90934 30.4146 7.24268" stroke="#3A6339" stroke-width="0.54"/>
<path d="M1.5 8H11M5 11C5.4 11 9.16667 11 11 11M2 15C2.4 15 7.83333 15 10.5 15" stroke="#3A6339" stroke-width="0.5" stroke-linecap="round"/>
</svg>
