<svg width="40" height="44" viewBox="0 0 40 44" fill="none" xmlns="http://www.w3.org/2000/svg">
<rect x="4.20731" y="34.7195" width="5.63415" height="8.41463" rx="1.5" stroke="#3A6339"/>
<rect x="11.6219" y="31.939" width="5.63415" height="11.1951" rx="1.5" stroke="#3A6339"/>
<rect x="19.0366" y="29.1584" width="5.63415" height="13.9756" rx="1.5" stroke="#3A6339"/>
<rect x="26.4512" y="26.3779" width="5.63415" height="16.7561" rx="1.5" stroke="#3A6339"/>
<rect x="33.8658" y="22.6707" width="5.63415" height="20.4634" rx="1.5" stroke="#3A6339"/>
<path d="M5.94324 20.0813C6.5665 17.2512 7.48117 16.2697 10.2684 15.7561C9.99272 18.9715 9.00424 19.8736 5.94324 20.0813Z" stroke="#3A6339"/>
<path d="M5.82674 17.346C5.6963 14.4511 6.32575 13.2662 8.8851 12.0488C9.451 15.2259 8.7297 16.3532 5.82674 17.346Z" stroke="#3A6339"/>
<path d="M5.32504 20.0813C4.70178 17.2512 3.78711 16.2697 0.999873 15.7561C1.27556 18.9715 2.26404 19.8736 5.32504 20.0813Z" stroke="#3A6339"/>
<path d="M5.29835 16.8277C4.99342 13.9459 4.19349 12.8688 1.48058 12.0487C1.39727 15.2748 2.27938 16.2812 5.29835 16.8277Z" stroke="#3A6339"/>
<path d="M5.32504 16.9917V24.4063" stroke="#3A6339" stroke-linecap="round"/>
<path d="M25.4868 12.7346H26.5063V11.7707C27.2602 11.6842 27.8472 11.4525 28.2673 11.0756C28.6875 10.6987 28.8976 10.1951 28.8976 9.56488C28.8976 8.93463 28.7184 8.42179 28.36 8.02634C28.0016 7.63089 27.3961 7.25398 26.5434 6.89561C25.8267 6.59902 25.3076 6.33333 24.9863 6.09854C24.665 5.86374 24.5044 5.54862 24.5044 5.15317C24.5044 4.77008 24.6434 4.46732 24.9215 4.24488C25.1995 4.02244 25.5795 3.91122 26.0615 3.91122C26.4322 3.91122 26.7535 3.99772 27.0254 4.17073C27.2972 4.34374 27.5259 4.60325 27.7112 4.94927L28.601 4.52293C28.3909 4.09041 28.1128 3.75057 27.7668 3.50341C27.4208 3.25626 27.013 3.10797 26.5434 3.05854V2.11317H25.5239V3.05854C24.8937 3.14504 24.3963 3.37675 24.0317 3.75366C23.6672 4.13057 23.4849 4.59707 23.4849 5.15317C23.4849 5.7587 23.6702 6.24065 24.041 6.59902C24.4117 6.9574 24.9678 7.29106 25.7093 7.6C26.5372 7.94602 27.1057 8.25805 27.4146 8.5361C27.7236 8.81415 27.878 9.15707 27.878 9.56488C27.878 9.96033 27.7143 10.2785 27.3868 10.5195C27.0594 10.7605 26.6485 10.881 26.1541 10.881C25.6722 10.881 25.2428 10.745 24.8659 10.4732C24.4889 10.2013 24.2263 9.83057 24.078 9.36098L23.1327 9.6761C23.3922 10.2446 23.7104 10.6925 24.0873 11.02C24.4642 11.3475 24.9307 11.5854 25.4868 11.7337V12.7346ZM26.0244 14.8293C25.0111 14.8293 24.0533 14.6346 23.1512 14.2454C22.2491 13.8561 21.4613 13.3247 20.7878 12.6512C20.1143 11.9777 19.5829 11.1899 19.1937 10.2878C18.8044 9.38569 18.6098 8.42797 18.6098 7.41463C18.6098 6.38894 18.8044 5.42504 19.1937 4.52293C19.5829 3.62081 20.1143 2.8361 20.7878 2.16878C21.4613 1.50146 22.2491 0.973171 23.1512 0.583902C24.0533 0.194634 25.0111 0 26.0244 0C27.0501 0 28.014 0.194634 28.9161 0.583902C29.8182 0.973171 30.6029 1.50146 31.2702 2.16878C31.9376 2.8361 32.4659 3.62081 32.8551 4.52293C33.2444 5.42504 33.439 6.38894 33.439 7.41463C33.439 8.42797 33.2444 9.38569 32.8551 10.2878C32.4659 11.1899 31.9376 11.9777 31.2702 12.6512C30.6029 13.3247 29.8182 13.8561 28.9161 14.2454C28.014 14.6346 27.0501 14.8293 26.0244 14.8293ZM26.0244 13.7171C27.7792 13.7171 29.2683 13.1023 30.4917 11.8727C31.7151 10.6431 32.3268 9.15707 32.3268 7.41463C32.3268 5.65984 31.7151 4.17073 30.4917 2.94732C29.2683 1.7239 27.7792 1.1122 26.0244 1.1122C24.282 1.1122 22.7959 1.7239 21.5663 2.94732C20.3367 4.17073 19.722 5.65984 19.722 7.41463C19.722 9.15707 20.3367 10.6431 21.5663 11.8727C22.7959 13.1023 24.282 13.7171 26.0244 13.7171Z" fill="#3A6339"/>
<path d="M5.63416 31.5122C17.5391 28.5971 23.84 26.034 33.9024 18.5366" stroke="#3A6339" stroke-linecap="round" stroke-dasharray="2 2"/>
<path d="M33.3246 17.4954L34.3659 18.5367L34.7357 18.9066C35.2295 19.4003 36.0643 19.2489 36.3532 18.6132L37.2352 16.6729C37.5781 15.9185 36.9074 15.0984 36.1 15.2847L33.8068 15.8139C33.0415 15.9905 32.7692 16.94 33.3246 17.4954Z" stroke="#3A6339" stroke-linecap="round"/>
</svg>
