<svg width="358" height="358" viewBox="0 0 358 358" fill="none" xmlns="http://www.w3.org/2000/svg">
    <defs>
        <filter id="filter0_d_562_6359" x="0" y="0" width="358" height="358" filterUnits="userSpaceOnUse" color-interpolation-filters="sRGB">
            <feFlood flood-opacity="0" result="BackgroundImageFix"/>
            <feColorMatrix in="SourceAlpha" type="matrix" values="0 0 0 0 0 0 0 0 0 0 0 0 0 0 0 0 0 0 127 0" result="hardAlpha"/>
            <feOffset dy="4"/>
            <feGaussianBlur stdDeviation="8"/>
            <feComposite in2="hardAlpha" operator="out"/>
            <feColorMatrix type="matrix" values="0 0 0 0 0.395833 0 0 0 0 0.350425 0 0 0 0 0.272135 0 0 0 0.15 0"/>
            <feBlend mode="normal" in2="BackgroundImageFix" result="effect1_dropShadow_562_6359"/>
            <feBlend mode="normal" in="SourceGraphic" in2="effect1_dropShadow_562_6359" result="shape"/>
        </filter>
    </defs>
<g filter="url(#filter0_d_562_6359)">
<circle cx="179" cy="175" r="163" fill="white"/>
</g>
<path d="M179.5 24C263.171 24 331 91.8289 331 175.5C331 175.5 246.642 203.619 179.5 175.5C112.358 147.381 28 175.5 28 175.5C28 91.8289 95.8289 24 179.5 24Z" fill="#448CA5" fill-opacity="0.1"/>
<path d="M331 175.5C331 91.8289 263.171 24 179.5 24C95.8289 24 28 91.8289 28 175.5C28.2942 187.81 29.0485 194.491 31 206.5L85 196.5C121 191.139 171 197.387 189 211.693C194.867 216.356 211.993 214.135 232.417 209.021C250.463 208.045 270.066 209.704 294 214C333 221 314.475 210.313 328 206.5C330.232 194.564 330.836 187.746 331 175.5Z" fill="#B6E5F7" fill-opacity="0.4"/>
<path d="M179.5 24C95.8289 24 28 91.8289 28 175.5C28 175.5 112.358 203.619 179.5 175.5C246.642 147.381 331 175.5 331 175.5C331 91.8289 263.171 24 179.5 24Z" fill="#7ED0E8" fill-opacity="0.01"/>
<path d="M159.65 80.3573C126.021 110.808 45.989 104.369 45.989 104.369C39.35 116.825 34.3996 130.317 31.4434 144.54C31.4434 144.54 128.897 116.841 179.771 144.54C231.419 172.659 328.099 144.54 328.099 144.54C320.709 108.982 300.855 77.9929 273.311 56.3455C273.311 56.3455 201.578 42.3919 159.65 80.3573Z" fill="#448CA5" fill-opacity="0.1"/>
<path d="M313.554 246.531C313.554 246.531 233.522 240.092 199.893 270.543C157.965 308.508 86.2319 294.555 86.2319 294.555C71.1206 282.678 58.3238 267.99 48.6299 251.278C40.6546 237.529 34.7795 222.41 31.4436 206.361C31.4436 206.361 128.124 178.241 179.772 206.361C230.646 234.059 328.1 206.361 328.1 206.361C326.868 212.285 325.291 218.083 323.389 223.732C320.726 231.644 317.427 239.264 313.554 246.531Z" fill="#86A03D" fill-opacity="0.6"/>
<path d="M200.465 270.544C238.003 239.228 314.126 246.532 314.126 246.532C318 239.265 321.298 231.645 323.961 223.733C323.961 223.733 228.821 246.532 186.582 237.506C144.342 228.48 49.2022 251.279 49.2022 251.279C58.8961 267.991 71.6929 282.679 86.8042 294.555C86.8042 294.555 154.793 308.645 200.465 270.544Z" fill="#618237" fill-opacity="0.01"/>
<path d="M35.6641 221.437C55.1495 282.599 112.423 326.9 180.043 326.9C247.663 326.9 304.936 282.599 324.421 221.437C324.421 221.437 237.429 192.744 180.043 221.437C122.656 250.13 35.6641 221.437 35.6641 221.437Z" fill="#5A7C32" fill-opacity="0.7"/>

</svg>
