<svg width="354" height="354" viewBox="0 0 354 354" fill="none" xmlns="http://www.w3.org/2000/svg">
    <defs>
        <filter id="filter0_d_583_5985" x="0" y="0" width="354" height="354" filterUnits="userSpaceOnUse" color-interpolation-filters="sRGB">
            <feFlood flood-opacity="0" result="BackgroundImageFix"/>
            <feColorMatrix in="SourceAlpha" type="matrix" values="0 0 0 0 0 0 0 0 0 0 0 0 0 0 0 0 0 0 127 0" result="hardAlpha"/>
            <feOffset/>
            <feGaussianBlur stdDeviation="6.5"/>
            <feComposite in2="hardAlpha" operator="out"/>
            <feColorMatrix type="matrix" values="0 0 0 0 0 0 0 0 0 0 0 0 0 0 0 0 0 0 0.2 0"/>
            <feBlend mode="normal" in2="BackgroundImageFix" result="effect1_dropShadow_583_5985"/>
            <feBlend mode="normal" in="SourceGraphic" in2="effect1_dropShadow_583_5985" result="shape"/>
        </filter>
        <filter id="filter1_d_583_5985" x="49.2134" y="96.1653" width="273.58" height="190.776" filterUnits="userSpaceOnUse" color-interpolation-filters="sRGB">
            <feFlood flood-opacity="0" result="BackgroundImageFix"/>
            <feColorMatrix in="SourceAlpha" type="matrix" values="0 0 0 0 0 0 0 0 0 0 0 0 0 0 0 0 0 0 127 0" result="hardAlpha"/>
            <feOffset dx="9" dy="5"/>
            <feGaussianBlur stdDeviation="5.5"/>
            <feComposite in2="hardAlpha" operator="out"/>
            <feColorMatrix type="matrix" values="0 0 0 0 0 0 0 0 0 0 0 0 0 0 0 0 0 0 0.25 0"/>
            <feBlend mode="normal" in2="BackgroundImageFix" result="effect1_dropShadow_583_5985"/>
            <feBlend mode="normal" in="SourceGraphic" in2="effect1_dropShadow_583_5985" result="shape"/>
        </filter>
        <radialGradient id="paint0_radial_583_5985" cx="0" cy="0" r="1" gradientUnits="userSpaceOnUse" gradientTransform="translate(86.5032 241.788) rotate(90) scale(26.0837 32.221)">
            <stop stop-color="#FFD781"/>
            <stop offset="1" stop-color="#CD9A2C"/>
        </radialGradient>
        <radialGradient id="paint1_radial_583_5985" cx="0" cy="0" r="1" gradientUnits="userSpaceOnUse" gradientTransform="translate(120.258 186.553) rotate(90) scale(39.8119 35.0229)">
            <stop stop-color="#88EAFF"/>
            <stop offset="1" stop-color="#449DAF"/>
        </radialGradient>
        <radialGradient id="paint2_radial_583_5985" cx="0" cy="0" r="1" gradientUnits="userSpaceOnUse" gradientTransform="translate(178.563 183.484) rotate(90) scale(39.8119 35.0229)">
            <stop stop-color="#FF7573"/>
            <stop offset="1" stop-color="#B33331"/>
        </radialGradient>
        <radialGradient id="paint3_radial_583_5985" cx="0" cy="0" r="1" gradientUnits="userSpaceOnUse" gradientTransform="translate(239.936 183.484) rotate(90) scale(39.8119 35.0229)">
            <stop stop-color="#FFBA87"/>
            <stop offset="1" stop-color="#AC642F"/>
        </radialGradient>
        <radialGradient id="paint4_radial_583_5985" cx="0" cy="0" r="1" gradientUnits="userSpaceOnUse" gradientTransform="translate(150.945 241.788) rotate(90) scale(26.0837 32.221)">
            <stop stop-color="#A29BFF"/>
            <stop offset="1" stop-color="#5B52C4"/>
        </radialGradient>
        <radialGradient id="paint5_radial_583_5985" cx="0" cy="0" r="1" gradientUnits="userSpaceOnUse" gradientTransform="translate(209.25 241.788) rotate(90) scale(26.0837 32.221)">
            <stop stop-color="#FEFEFE"/>
            <stop offset="1" stop-color="#BEA6A6"/>
        </radialGradient>
        <radialGradient id="paint6_radial_583_5985" cx="0" cy="0" r="1" gradientUnits="userSpaceOnUse" gradientTransform="translate(267.555 241.788) rotate(90) scale(26.0837 32.221)">
            <stop stop-color="#E6FC89"/>
            <stop offset="1" stop-color="#A9C23F"/>
        </radialGradient>
        <radialGradient id="paint7_radial_583_5985" cx="0" cy="0" r="1" gradientUnits="userSpaceOnUse" gradientTransform="translate(86 205.5) rotate(90) scale(27.5 24)">
            <stop stop-color="#EDB0A4"/>
            <stop offset="1" stop-color="#B47265"/>
        </radialGradient>
        <radialGradient id="paint8_radial_583_5985" cx="0" cy="0" r="1" gradientUnits="userSpaceOnUse" gradientTransform="translate(151 205.5) rotate(90) scale(27.5 24)">
            <stop stop-color="#FBC2B7"/>
            <stop offset="1" stop-color="#DFA194"/>
        </radialGradient>
        <radialGradient id="paint9_radial_583_5985" cx="0" cy="0" r="1" gradientUnits="userSpaceOnUse" gradientTransform="translate(209 205.5) rotate(90) scale(27.5 24)">
            <stop stop-color="#BFAAA6"/>
            <stop offset="1" stop-color="#B78378"/>
        </radialGradient>
        <radialGradient id="paint10_radial_583_5985" cx="0" cy="0" r="1" gradientUnits="userSpaceOnUse" gradientTransform="translate(267 205.5) rotate(90) scale(27.5 24)">
            <stop stop-color="#FBC2B7"/>
            <stop offset="1" stop-color="#DFA194"/>
        </radialGradient>
        <radialGradient id="paint11_radial_583_5985" cx="0" cy="0" r="1" gradientUnits="userSpaceOnUse" gradientTransform="translate(120 131.5) rotate(90) scale(27.5 24)">
            <stop stop-color="#FBC2B7"/>
            <stop offset="1" stop-color="#DFA194"/>
        </radialGradient>
        <radialGradient id="paint12_radial_583_5985" cx="0" cy="0" r="1" gradientUnits="userSpaceOnUse" gradientTransform="translate(178 131.5) rotate(90) scale(27.5 24)">
            <stop stop-color="#BFAAA6"/>
            <stop offset="1" stop-color="#B78378"/>
        </radialGradient>
        <radialGradient id="paint13_radial_583_5985" cx="0" cy="0" r="1" gradientUnits="userSpaceOnUse" gradientTransform="translate(240 131.5) rotate(90) scale(27.5 24)">
            <stop stop-color="#AC8780"/>
            <stop offset="1" stop-color="#8F635A"/>
        </radialGradient>
    </defs>
<g filter="url(#filter0_d_583_5985)">
<mask id="mask0_583_5985" style="mask-type:alpha" maskUnits="userSpaceOnUse" x="13" y="13" width="328" height="328">
<circle cx="177" cy="177" r="164" fill="white"/>
</mask>
<g mask="url(#mask0_583_5985)">
<circle cx="177" cy="177" r="164" fill="white"/>
<path d="M177.503 25.0732C261.688 25.0732 329.933 93.3182 329.933 177.503C329.933 177.503 245.057 205.795 177.503 177.503C109.949 149.211 25.0737 177.503 25.0737 177.503C25.0737 93.3182 93.3187 25.0732 177.503 25.0732Z" fill="#448CA5" fill-opacity="0.1"/>
<path d="M329.933 177.503C329.933 93.3182 261.688 25.0732 177.503 25.0732C93.3187 25.0732 25.0737 93.3182 25.0737 177.503C25.3696 189.889 26.1286 196.61 28.0921 208.693L82.4234 198.632C118.644 193.237 168.951 199.523 187.061 213.918C192.964 218.61 210.196 216.375 230.745 211.23C248.901 210.247 268.625 211.917 292.706 216.239C331.945 223.282 313.306 212.529 326.914 208.693C329.16 196.684 329.768 189.824 329.933 177.503Z" fill="#B6E5F7" fill-opacity="0.4"/>
<path d="M177.503 25.0732C93.3187 25.0732 25.0737 93.3182 25.0737 177.503C25.0737 177.503 109.949 205.795 177.503 177.503C245.057 149.211 329.933 177.503 329.933 177.503C329.933 93.3182 261.688 25.0732 177.503 25.0732Z" fill="#7ED0E8" fill-opacity="0.01"/>
<path d="M157.531 81.7776C123.696 112.415 43.1729 105.937 43.1729 105.937C36.4932 118.469 31.5125 132.043 28.5381 146.354C28.5381 146.354 126.59 118.485 177.776 146.354C229.741 174.645 327.014 146.354 327.014 146.354C319.578 110.578 299.602 79.3986 271.89 57.6184C271.89 57.6184 199.717 43.5792 157.531 81.7776Z" fill="#448CA5" fill-opacity="0.1"/>
<path d="M312.379 248.97C312.379 248.97 231.856 242.491 198.021 273.129C155.836 311.327 83.6626 297.288 83.6626 297.288C68.4586 285.339 55.5833 270.56 45.83 253.746C37.8057 239.912 31.8946 224.701 28.5382 208.553C28.5382 208.553 125.812 180.261 177.776 208.553C228.963 236.421 327.014 208.553 327.014 208.553C325.775 214.514 324.188 220.348 322.275 226.031C319.595 233.992 316.276 241.658 312.379 248.97Z" fill="#86A03D" fill-opacity="0.6"/>
<path d="M198.597 273.13C236.365 241.622 312.955 248.971 312.955 248.971C316.852 241.659 320.171 233.993 322.851 226.032C322.851 226.032 227.127 248.971 184.628 239.889C142.129 230.808 46.4057 253.747 46.4057 253.747C56.1591 270.561 69.0344 285.34 84.2383 297.289C84.2383 297.289 152.644 311.466 198.597 273.13Z" fill="#618237" fill-opacity="0.01"/>
<path d="M32.7847 223.721C52.3896 285.259 110.014 329.832 178.049 329.832C246.084 329.832 303.709 285.259 323.313 223.721C323.313 223.721 235.788 194.852 178.049 223.721C120.311 252.591 32.7847 223.721 32.7847 223.721Z" fill="#5A7C32" fill-opacity="0.7"/>
<g filter="url(#filter1_d_583_5985)">
<ellipse cx="86.5031" cy="241.789" rx="35.2897" ry="29.1523" fill="#3A3A3C"/>
<ellipse cx="86.5032" cy="241.788" rx="32.221" ry="26.0837" fill="url(#paint0_radial_583_5985)"/>
<ellipse cx="120.258" cy="186.553" rx="38.3584" ry="44.4957" fill="#3A3A3C"/>
<ellipse cx="120.258" cy="186.553" rx="35.0229" ry="39.8119" fill="url(#paint1_radial_583_5985)"/>
<ellipse cx="178.258" cy="183.553" rx="38.3584" ry="44.4957" fill="#3A3A3C"/>
<ellipse cx="178.563" cy="183.484" rx="35.0229" ry="39.8119" fill="url(#paint2_radial_583_5985)"/>
<ellipse cx="240.258" cy="183.553" rx="38.3584" ry="44.4957" fill="#3A3A3C"/>
<ellipse cx="239.936" cy="183.484" rx="35.0229" ry="39.8119" fill="url(#paint3_radial_583_5985)"/>
<ellipse cx="150.503" cy="241.789" rx="35.2897" ry="29.1523" fill="#3A3A3C"/>
<ellipse cx="150.945" cy="241.788" rx="32.221" ry="26.0837" fill="url(#paint4_radial_583_5985)"/>
<ellipse cx="209.503" cy="241.789" rx="35.2897" ry="29.1523" fill="#3A3A3C"/>
<ellipse cx="209.25" cy="241.788" rx="32.221" ry="26.0837" fill="url(#paint5_radial_583_5985)"/>
<ellipse cx="267.503" cy="241.789" rx="35.2897" ry="29.1523" fill="#3A3A3C"/>
<ellipse cx="267.555" cy="241.788" rx="32.221" ry="26.0837" fill="url(#paint6_radial_583_5985)"/>
<ellipse cx="86.2585" cy="205.318" rx="26.0837" ry="29.1523" fill="#3A3A3C"/>
<ellipse cx="86" cy="205.5" rx="24" ry="27.5" fill="url(#paint7_radial_583_5985)"/>
<ellipse cx="151.258" cy="205.318" rx="26.0837" ry="29.1523" fill="#3A3A3C"/>
<ellipse cx="151" cy="205.5" rx="24" ry="27.5" fill="url(#paint8_radial_583_5985)"/>
<ellipse cx="209.258" cy="205.318" rx="26.0837" ry="29.1523" fill="#3A3A3C"/>
<ellipse cx="209" cy="205.5" rx="24" ry="27.5" fill="url(#paint9_radial_583_5985)"/>
<ellipse cx="267.258" cy="205.318" rx="26.0837" ry="29.1523" fill="#3A3A3C"/>
<ellipse cx="267" cy="205.5" rx="24" ry="27.5" fill="url(#paint10_radial_583_5985)"/>
<ellipse cx="120.258" cy="131.318" rx="26.0837" ry="29.1523" fill="#3A3A3C"/>
<ellipse cx="120" cy="131.5" rx="24" ry="27.5" fill="url(#paint11_radial_583_5985)"/>
<ellipse cx="178.258" cy="131.318" rx="26.0837" ry="29.1523" fill="#3A3A3C"/>
<ellipse cx="178" cy="131.5" rx="24" ry="27.5" fill="url(#paint12_radial_583_5985)"/>
<ellipse cx="240.258" cy="131.318" rx="26.0837" ry="29.1523" fill="#3A3A3C"/>
<ellipse cx="240" cy="131.5" rx="24" ry="27.5" fill="url(#paint13_radial_583_5985)"/>
</g>
</g>
</g>

</svg>
