<svg width="359" height="359" viewBox="0 0 359 359" fill="none" xmlns="http://www.w3.org/2000/svg">
    <defs>
        <filter id="filter0_d_583_5943" x="0" y="0" width="359" height="359" filterUnits="userSpaceOnUse" color-interpolation-filters="sRGB">
            <feFlood flood-opacity="0" result="BackgroundImageFix"/>
            <feColorMatrix in="SourceAlpha" type="matrix" values="0 0 0 0 0 0 0 0 0 0 0 0 0 0 0 0 0 0 127 0" result="hardAlpha"/>
            <feOffset dy="4"/>
            <feGaussianBlur stdDeviation="8"/>
            <feComposite in2="hardAlpha" operator="out"/>
            <feColorMatrix type="matrix" values="0 0 0 0 0.395833 0 0 0 0 0.350425 0 0 0 0 0.272135 0 0 0 0.15 0"/>
            <feBlend mode="normal" in2="BackgroundImageFix" result="effect1_dropShadow_583_5943"/>
            <feBlend mode="normal" in="SourceGraphic" in2="effect1_dropShadow_583_5943" result="shape"/>
        </filter>
        <filter id="filter1_d_583_5943" x="99.7183" y="92.6404" width="165.298" height="173.068" filterUnits="userSpaceOnUse" color-interpolation-filters="sRGB">
            <feFlood flood-opacity="0" result="BackgroundImageFix"/>
            <feColorMatrix in="SourceAlpha" type="matrix" values="0 0 0 0 0 0 0 0 0 0 0 0 0 0 0 0 0 0 127 0" result="hardAlpha"/>
            <feOffset dx="2" dy="2"/>
            <feGaussianBlur stdDeviation="2"/>
            <feComposite in2="hardAlpha" operator="out"/>
            <feColorMatrix type="matrix" values="0 0 0 0 0.129167 0 0 0 0 0.123785 0 0 0 0 0.123785 0 0 0 0.25 0"/>
            <feBlend mode="normal" in2="BackgroundImageFix" result="effect1_dropShadow_583_5943"/>
            <feBlend mode="normal" in="SourceGraphic" in2="effect1_dropShadow_583_5943" result="shape"/>
        </filter>
        <radialGradient id="paint0_radial_583_5943" cx="0" cy="0" r="1" gradientUnits="userSpaceOnUse" gradientTransform="translate(204.569 141.652) rotate(90) scale(7.43824)">
            <stop stop-color="#5D7F35"/>
            <stop offset="1" stop-color="#00675B"/>
        </radialGradient>
        <radialGradient id="paint1_radial_583_5943" cx="0" cy="0" r="1" gradientUnits="userSpaceOnUse" gradientTransform="translate(204.668 169.804) rotate(90) scale(22.9054 2.54505)">
            <stop stop-color="#5D7F35"/>
            <stop offset="1" stop-color="#00675B"/>
        </radialGradient>
        <radialGradient id="paint2_radial_583_5943" cx="0" cy="0" r="1" gradientUnits="userSpaceOnUse" gradientTransform="translate(184.63 194.65) rotate(90) scale(12.2937)">
            <stop stop-color="#DA7C0E"/>
            <stop offset="1" stop-color="#8B4F09"/>
        </radialGradient>
        <radialGradient id="paint3_radial_583_5943" cx="0" cy="0" r="1" gradientUnits="userSpaceOnUse" gradientTransform="translate(226.78 194.65) rotate(90) scale(12.2937)">
            <stop stop-color="#DA7C0E"/>
            <stop offset="1" stop-color="#8B4F09"/>
        </radialGradient>
        <radialGradient id="paint4_radial_583_5943" cx="0" cy="0" r="1" gradientUnits="userSpaceOnUse" gradientTransform="translate(198.68 180.6) rotate(90) scale(12.2937)">
            <stop stop-color="#DA7C0E"/>
            <stop offset="1" stop-color="#8B4F09"/>
        </radialGradient>
        <radialGradient id="paint5_radial_583_5943" cx="0" cy="0" r="1" gradientUnits="userSpaceOnUse" gradientTransform="translate(216.242 180.6) rotate(90) scale(12.2937)">
            <stop stop-color="#DA7C0E"/>
            <stop offset="1" stop-color="#8B4F09"/>
        </radialGradient>
        <radialGradient id="paint6_radial_583_5943" cx="0" cy="0" r="1" gradientUnits="userSpaceOnUse" gradientTransform="translate(214.486 185.869) rotate(90) scale(7.025)">
            <stop stop-color="#DA7C0E"/>
            <stop offset="1" stop-color="#8B4F09"/>
        </radialGradient>
        <radialGradient id="paint7_radial_583_5943" cx="0" cy="0" r="1" gradientUnits="userSpaceOnUse" gradientTransform="translate(182.874 178.843) rotate(90) scale(7.025)">
            <stop stop-color="#DA7C0E"/>
            <stop offset="1" stop-color="#8B4F09"/>
        </radialGradient>
        <radialGradient id="paint8_radial_583_5943" cx="0" cy="0" r="1" gradientUnits="userSpaceOnUse" gradientTransform="translate(191.655 205.187) rotate(90) scale(15.8062)">
            <stop stop-color="#DA7C0E"/>
            <stop offset="1" stop-color="#8B4F09"/>
        </radialGradient>
        <radialGradient id="paint9_radial_583_5943" cx="0" cy="0" r="1" gradientUnits="userSpaceOnUse" gradientTransform="translate(212.73 205.187) rotate(90) scale(19.3187)">
            <stop stop-color="#DA7C0E"/>
            <stop offset="1" stop-color="#8B4F09"/>
        </radialGradient>
        <linearGradient id="paint10_linear_583_5943" x1="107.344" y1="184.17" x2="261.226" y2="256.631" gradientUnits="userSpaceOnUse">
            <stop stop-color="#F9E6C9"/>
            <stop offset="1" stop-color="#F0D9B5"/>
        </linearGradient>
        <linearGradient id="paint11_linear_583_5943" x1="95.7306" y1="192.309" x2="125.71" y2="277.383" gradientUnits="userSpaceOnUse">
            <stop stop-color="#E9390F"/>
            <stop offset="1" stop-color="#BE2D0E"/>
        </linearGradient>
    </defs>
<g filter="url(#filter0_d_583_5943)">
<circle cx="179.5" cy="175.5" r="163.5" fill="white"/>
</g>
<path d="M180.002 24.0361C263.929 24.0361 331.966 92.0731 331.966 176.001C331.966 176.001 247.35 204.206 180.002 176.001C112.654 147.795 28.0369 176.001 28.0369 176.001C28.0369 92.0731 96.0738 24.0361 180.002 24.0361Z" fill="#448CA5" fill-opacity="0.1"/>
<path d="M331.966 176.001C331.966 92.0731 263.929 24.0361 180.002 24.0361C96.0738 24.0361 28.0369 92.0731 28.0369 176.001C28.3319 188.349 29.0886 195.05 31.0461 207.096L85.2117 197.065C121.322 191.687 171.476 197.955 189.531 212.305C195.415 216.982 212.595 214.754 233.081 209.625C251.182 208.645 270.845 210.31 294.853 214.619C333.972 221.64 315.391 210.92 328.957 207.096C331.196 195.123 331.802 188.285 331.966 176.001Z" fill="#B6E5F7" fill-opacity="0.4"/>
<path d="M180.001 24.0361C96.0735 24.0361 28.0366 92.0731 28.0366 176.001C28.0366 176.001 112.653 204.206 180.001 176.001C247.349 147.795 331.966 176.001 331.966 176.001C331.966 92.0731 263.929 24.0361 180.001 24.0361Z" fill="#7ED0E8" fill-opacity="0.01"/>
<path d="M160.09 80.5676C126.358 111.112 46.0805 104.653 46.0805 104.653C39.4211 117.147 34.4556 130.68 31.4902 144.947C31.4902 144.947 129.243 117.163 180.273 144.947C232.079 173.152 329.056 144.947 329.056 144.947C321.643 109.28 301.728 78.1959 274.1 56.4821C274.1 56.4821 202.147 42.4857 160.09 80.5676Z" fill="#448CA5" fill-opacity="0.1"/>
<path d="M314.466 247.25C314.466 247.25 234.189 240.792 200.457 271.336C158.4 309.418 86.447 295.421 86.447 295.421C71.2894 283.508 58.4533 268.775 48.7297 252.012C40.73 238.22 34.8368 223.055 31.4907 206.957C31.4907 206.957 128.468 178.751 180.274 206.957C231.304 234.74 329.057 206.957 329.057 206.957C327.821 212.9 326.239 218.715 324.332 224.382C321.66 232.318 318.352 239.961 314.466 247.25Z" fill="#86A03D" fill-opacity="0.6"/>
<path d="M201.031 271.337C238.684 239.924 315.04 247.251 315.04 247.251C318.926 239.962 322.234 232.319 324.906 224.383C324.906 224.383 229.474 247.251 187.105 238.197C144.736 229.144 49.3037 252.012 49.3037 252.012C59.0273 268.776 71.8634 283.509 87.021 295.422C87.021 295.422 155.218 309.555 201.031 271.337Z" fill="#618237" fill-opacity="0.01"/>
<path d="M35.7242 222.079C55.2693 283.429 112.718 327.866 180.546 327.866C248.373 327.866 305.822 283.429 325.367 222.079C325.367 222.079 238.108 193.298 180.546 222.079C122.983 250.86 35.7242 222.079 35.7242 222.079Z" fill="#5A7C32" fill-opacity="0.7"/>
<g filter="url(#filter1_d_583_5943)">
<circle cx="204.569" cy="141.652" r="7.43824" fill="url(#paint0_radial_583_5943)"/>
<path d="M255.268 94.6458C222.571 97.2494 214.035 109.92 206.171 139.057C205.993 139.717 206.532 140.365 207.213 140.314C239.48 137.883 249.049 126.24 256.322 95.875C256.479 95.2205 255.939 94.5924 255.268 94.6458Z" fill="#5D7F35"/>
<path d="M208.288 139.175C219.496 122.865 226.448 114.917 242.999 108.182L208.288 139.175Z" fill="#00675B"/>
<path d="M200.721 140.311C168.024 137.708 159.487 125.037 151.624 95.9003C151.446 95.2402 151.984 94.5919 152.666 94.6433C184.933 97.0743 194.502 108.717 201.775 139.082C201.931 139.736 201.392 140.365 200.721 140.311Z" fill="#5D7F35"/>
<path d="M153.741 95.7847C164.949 112.095 171.901 120.042 188.453 126.777L153.741 95.7847Z" fill="#00675B"/>
<rect x="202.123" y="146.898" width="5.0901" height="45.8109" rx="2.54505" fill="url(#paint1_radial_583_5943)"/>
<circle cx="184.63" cy="194.65" r="12.2937" fill="url(#paint2_radial_583_5943)"/>
<circle cx="226.78" cy="194.65" r="12.2937" fill="url(#paint3_radial_583_5943)"/>
<circle cx="198.68" cy="180.6" r="12.2937" fill="url(#paint4_radial_583_5943)"/>
<circle cx="216.242" cy="180.6" r="12.2937" fill="url(#paint5_radial_583_5943)"/>
<circle cx="214.486" cy="185.869" r="7.025" fill="url(#paint6_radial_583_5943)"/>
<circle cx="182.874" cy="178.843" r="7.025" fill="url(#paint7_radial_583_5943)"/>
<circle cx="191.655" cy="205.187" r="15.8062" fill="url(#paint8_radial_583_5943)"/>
<circle cx="212.73" cy="205.187" r="19.3187" fill="url(#paint9_radial_583_5943)"/>
<path fill-rule="evenodd" clip-rule="evenodd" d="M173.879 193.641C152.687 190.738 145.304 195.85 133.877 206.527L125.61 192.207L102.086 205.788L133.173 259.631L156.696 246.05L152.508 238.797C172.77 240.581 186.012 240.709 208.802 238.262C232.579 230.275 243.085 221.998 257.306 201.4C261.864 187.494 256.636 180.76 249.546 185.878C247.754 187.436 246.553 189.374 245.176 191.597C241.887 196.906 237.592 203.842 221.838 211.1C225.431 205.972 223.305 203.289 218.503 199.459C198.55 201.013 189.658 198.409 173.879 193.641ZM222.383 211.098C206.862 216.919 197.549 217.708 181.64 213.038L179.699 214.978C198.366 220.578 207.812 220.093 222.383 211.098Z" fill="url(#paint10_linear_583_5943)"/>
<rect x="101.718" y="205.4" width="27.3762" height="62.7095" transform="rotate(-30 101.718 205.4)" fill="url(#paint11_linear_583_5943)"/>
</g>

</svg>
