<svg width="382" height="172" viewBox="0 0 382 172" fill="none" xmlns="http://www.w3.org/2000/svg">
    <defs>
        <filter id="filter0_d_565_5606" x="0" y="0" width="382" height="172" filterUnits="userSpaceOnUse" color-interpolation-filters="sRGB">
            <feFlood flood-opacity="0" result="BackgroundImageFix"/>
            <feColorMatrix in="SourceAlpha" type="matrix" values="0 0 0 0 0 0 0 0 0 0 0 0 0 0 0 0 0 0 127 0" result="hardAlpha"/>
            <feOffset dx="2" dy="2"/>
            <feGaussianBlur stdDeviation="5.5"/>
            <feComposite in2="hardAlpha" operator="out"/>
            <feColorMatrix type="matrix" values="0 0 0 0 0.240918 0 0 0 0 0.258333 0 0 0 0 0.206667 0 0 0 0.2 0"/>
            <feBlend mode="normal" in2="BackgroundImageFix" result="effect1_dropShadow_565_5606"/>
            <feBlend mode="normal" in="SourceGraphic" in2="effect1_dropShadow_565_5606" result="shape"/>
        </filter>
        <filter id="filter1_b_565_5606" x="158" y="5" width="215" height="40" filterUnits="userSpaceOnUse" color-interpolation-filters="sRGB">
            <feFlood flood-opacity="0" result="BackgroundImageFix"/>
            <feGaussianBlur in="BackgroundImageFix" stdDeviation="2"/>
            <feComposite in2="SourceAlpha" operator="in" result="effect1_backgroundBlur_565_5606"/>
            <feBlend mode="normal" in="SourceGraphic" in2="effect1_backgroundBlur_565_5606" result="shape"/>
        </filter>
        <filter id="filter2_b_565_5606" x="178.618" y="56.0129" width="48.2166" height="48.2166" filterUnits="userSpaceOnUse" color-interpolation-filters="sRGB">
            <feFlood flood-opacity="0" result="BackgroundImageFix"/>
            <feGaussianBlur in="BackgroundImageFix" stdDeviation="0.5"/>
            <feComposite in2="SourceAlpha" operator="in" result="effect1_backgroundBlur_565_5606"/>
            <feBlend mode="normal" in="SourceGraphic" in2="effect1_backgroundBlur_565_5606" result="shape"/>
        </filter>
        <filter id="filter3_d_565_5606" x="295" y="49" width="55.1018" height="95" filterUnits="userSpaceOnUse" color-interpolation-filters="sRGB">
            <feFlood flood-opacity="0" result="BackgroundImageFix"/>
            <feColorMatrix in="SourceAlpha" type="matrix" values="0 0 0 0 0 0 0 0 0 0 0 0 0 0 0 0 0 0 127 0" result="hardAlpha"/>
            <feOffset dx="2" dy="2"/>
            <feGaussianBlur stdDeviation="2"/>
            <feComposite in2="hardAlpha" operator="out"/>
            <feColorMatrix type="matrix" values="0 0 0 0 0.1625 0 0 0 0 0.1625 0 0 0 0 0.1625 0 0 0 0.2 0"/>
            <feBlend mode="normal" in2="BackgroundImageFix" result="effect1_dropShadow_565_5606"/>
            <feBlend mode="normal" in="SourceGraphic" in2="effect1_dropShadow_565_5606" result="shape"/>
        </filter>
        <radialGradient id="paint0_radial_565_5606" cx="0" cy="0" r="1" gradientUnits="userSpaceOnUse" gradientTransform="translate(29.6942 134.753) rotate(90) scale(2.32941)">
            <stop stop-color="#5D7F35"/>
            <stop offset="1" stop-color="#00675B"/>
        </radialGradient>
        <radialGradient id="paint1_radial_565_5606" cx="0" cy="0" r="1" gradientUnits="userSpaceOnUse" gradientTransform="translate(29.6942 144.071) rotate(90) scale(7.7647 0.77647)">
            <stop stop-color="#5D7F35"/>
            <stop offset="1" stop-color="#00675B"/>
        </radialGradient>
        <radialGradient id="paint2_radial_565_5606" cx="0" cy="0" r="1" gradientUnits="userSpaceOnUse" gradientTransform="translate(69.7882 121.907) rotate(90) scale(3.45882)">
            <stop stop-color="#5D7F35"/>
            <stop offset="1" stop-color="#00675B"/>
        </radialGradient>
        <radialGradient id="paint3_radial_565_5606" cx="0" cy="0" r="1" gradientUnits="userSpaceOnUse" gradientTransform="translate(69.7882 135.741) rotate(90) scale(11.5294 1.15294)">
            <stop stop-color="#5D7F35"/>
            <stop offset="1" stop-color="#00675B"/>
        </radialGradient>
        <radialGradient id="paint4_radial_565_5606" cx="0" cy="0" r="1" gradientUnits="userSpaceOnUse" gradientTransform="translate(145.256 120.367) rotate(90) scale(8.26824)">
            <stop stop-color="#5D7F35"/>
            <stop offset="1" stop-color="#00675B"/>
        </radialGradient>
        <radialGradient id="paint5_radial_565_5606" cx="0" cy="0" r="1" gradientUnits="userSpaceOnUse" gradientTransform="translate(145.256 153.439) rotate(90) scale(27.5608 2.75608)">
            <stop stop-color="#5D7F35"/>
            <stop offset="1" stop-color="#00675B"/>
        </radialGradient>
        <linearGradient id="paint6_linear_565_5606" x1="162" y1="9" x2="369" y2="41" gradientUnits="userSpaceOnUse">
            <stop stop-color="#F5F5F5" stop-opacity="0.6"/>
            <stop offset="1" stop-color="#EBEBEB" stop-opacity="0.8"/>
        </linearGradient>
        <linearGradient id="paint7_linear_565_5606" x1="162" y1="9" x2="369" y2="41" gradientUnits="userSpaceOnUse">
            <stop stop-color="#EBEBEB" stop-opacity="0.7"/>
            <stop offset="1" stop-color="#F1F1F1" stop-opacity="0.9"/>
        </linearGradient>
        <linearGradient id="paint8_linear_565_5606" x1="175.856" y1="85.7788" x2="168.167" y2="91.0644" gradientUnits="userSpaceOnUse">
            <stop stop-color="#DD868E"/>
            <stop offset="1" stop-color="#911E34"/>
        </linearGradient>
        <linearGradient id="paint9_linear_565_5606" x1="185.946" y1="91.5449" x2="178.258" y2="96.8305" gradientUnits="userSpaceOnUse">
            <stop stop-color="#DD868E"/>
            <stop offset="1" stop-color="#911E34"/>
        </linearGradient>
        <linearGradient id="paint10_linear_565_5606" x1="176.977" y1="96.51" x2="166.726" y2="103.557" gradientUnits="userSpaceOnUse">
            <stop stop-color="#DD868E"/>
            <stop offset="1" stop-color="#911E34"/>
        </linearGradient>
        <linearGradient id="paint11_linear_565_5606" x1="199.251" y1="73.5627" x2="189" y2="80.6102" gradientUnits="userSpaceOnUse">
            <stop stop-color="#DD868E"/>
            <stop offset="1" stop-color="#911E34"/>
        </linearGradient>
        <linearGradient id="paint12_linear_565_5606" x1="177.778" y1="76.1685" x2="173.934" y2="78.8114" gradientUnits="userSpaceOnUse">
            <stop stop-color="#DD868E"/>
            <stop offset="1" stop-color="#911E34"/>
        </linearGradient>
        <linearGradient id="paint13_linear_565_5606" x1="190.752" y1="83.3762" x2="186.907" y2="86.0191" gradientUnits="userSpaceOnUse">
            <stop stop-color="#DD868E"/>
            <stop offset="1" stop-color="#911E34"/>
        </linearGradient>
        <linearGradient id="paint14_linear_565_5606" x1="182.102" y1="83.3762" x2="178.258" y2="86.0191" gradientUnits="userSpaceOnUse">
            <stop stop-color="#DD868E"/>
            <stop offset="1" stop-color="#911E34"/>
        </linearGradient>
        <linearGradient id="paint15_linear_565_5606" x1="186.587" y1="77.2897" x2="184.024" y2="79.0516" gradientUnits="userSpaceOnUse">
            <stop stop-color="#DD868E"/>
            <stop offset="1" stop-color="#911E34"/>
        </linearGradient>
        <linearGradient id="paint16_linear_565_5606" x1="166.406" y1="88.8218" x2="163.843" y2="90.5837" gradientUnits="userSpaceOnUse">
            <stop stop-color="#DD868E"/>
            <stop offset="1" stop-color="#911E34"/>
        </linearGradient>
        <linearGradient id="paint17_linear_565_5606" x1="160.563" y1="101.641" x2="158" y2="103.403" gradientUnits="userSpaceOnUse">
            <stop stop-color="#DD868E"/>
            <stop offset="1" stop-color="#911E34"/>
        </linearGradient>
        <linearGradient id="paint18_linear_565_5606" x1="164.563" y1="98.6407" x2="162" y2="100.403" gradientUnits="userSpaceOnUse">
            <stop stop-color="#DD868E"/>
            <stop offset="1" stop-color="#911E34"/>
        </linearGradient>
        <linearGradient id="paint19_linear_565_5606" x1="164.804" y1="93.4669" x2="160.96" y2="96.1097" gradientUnits="userSpaceOnUse">
            <stop stop-color="#DD868E"/>
            <stop offset="1" stop-color="#911E34"/>
        </linearGradient>
        <linearGradient id="paint20_linear_565_5606" x1="166.844" y1="103.961" x2="163" y2="106.604" gradientUnits="userSpaceOnUse">
            <stop stop-color="#DD868E"/>
            <stop offset="1" stop-color="#911E34"/>
        </linearGradient>
        <linearGradient id="paint21_linear_565_5606" x1="179.621" y1="57.0164" x2="225.831" y2="103.226" gradientUnits="userSpaceOnUse">
            <stop stop-color="#F4F4F4"/>
            <stop offset="1" stop-color="#E8E8E8" stop-opacity="0"/>
        </linearGradient>
        <linearGradient id="paint22_linear_565_5606" x1="179.621" y1="57.0164" x2="225.831" y2="103.226" gradientUnits="userSpaceOnUse">
            <stop stop-color="#EFEFEF"/>
            <stop offset="1" stop-color="#E2E2E2"/>
        </linearGradient>
        <linearGradient id="paint23_linear_565_5606" x1="228.021" y1="99.7466" x2="228.021" y2="104.118" gradientUnits="userSpaceOnUse">
            <stop stop-color="#B49B87"/>
            <stop offset="1" stop-color="#5F4136"/>
        </linearGradient>
        <linearGradient id="paint24_linear_565_5606" x1="229.989" y1="99.0704" x2="229.989" y2="106.828" gradientUnits="userSpaceOnUse">
            <stop stop-color="#B49B87"/>
            <stop offset="1" stop-color="#5F4136"/>
        </linearGradient>
        <linearGradient id="paint25_linear_565_5606" x1="237.688" y1="104.731" x2="237.688" y2="155.403" gradientUnits="userSpaceOnUse">
            <stop stop-color="#AC8362"/>
            <stop offset="1" stop-color="#5F4136"/>
        </linearGradient>
        <radialGradient id="paint26_radial_565_5606" cx="0" cy="0" r="1" gradientUnits="userSpaceOnUse" gradientTransform="translate(319.208 75.2098) rotate(-43.5599) scale(12.4074 10.9723)">
            <stop stop-color="#D12727"/>
            <stop offset="1" stop-color="#652421"/>
        </radialGradient>
        <radialGradient id="paint27_radial_565_5606" cx="0" cy="0" r="1" gradientUnits="userSpaceOnUse" gradientTransform="translate(313.993 66.1049) rotate(90) scale(1.8881)">
            <stop stop-color="#BE2F2F"/>
            <stop offset="1" stop-color="#791919"/>
        </radialGradient>
        <radialGradient id="paint28_radial_565_5606" cx="0" cy="0" r="1" gradientUnits="userSpaceOnUse" gradientTransform="translate(310.217 73.6571) rotate(90) scale(1.8881)">
            <stop stop-color="#BE2F2F"/>
            <stop offset="1" stop-color="#791919"/>
        </radialGradient>
        <radialGradient id="paint29_radial_565_5606" cx="0" cy="0" r="1" gradientUnits="userSpaceOnUse" gradientTransform="translate(312.105 81.2097) rotate(90) scale(1.8881)">
            <stop stop-color="#BE2F2F"/>
            <stop offset="1" stop-color="#791919"/>
        </radialGradient>
        <radialGradient id="paint30_radial_565_5606" cx="0" cy="0" r="1" gradientUnits="userSpaceOnUse" gradientTransform="translate(321.545 84.9858) rotate(90) scale(1.8881)">
            <stop stop-color="#BE2F2F"/>
            <stop offset="1" stop-color="#791919"/>
        </radialGradient>
        <radialGradient id="paint31_radial_565_5606" cx="0" cy="0" r="1" gradientUnits="userSpaceOnUse" gradientTransform="translate(329.098 81.2097) rotate(90) scale(1.8881)">
            <stop stop-color="#BE2F2F"/>
            <stop offset="1" stop-color="#791919"/>
        </radialGradient>
        <radialGradient id="paint32_radial_565_5606" cx="0" cy="0" r="1" gradientUnits="userSpaceOnUse" gradientTransform="translate(330.986 73.6571) rotate(90) scale(1.8881)">
            <stop stop-color="#BE2F2F"/>
            <stop offset="1" stop-color="#791919"/>
        </radialGradient>
        <radialGradient id="paint33_radial_565_5606" cx="0" cy="0" r="1" gradientUnits="userSpaceOnUse" gradientTransform="translate(327.21 66.1049) rotate(90) scale(1.8881)">
            <stop stop-color="#BE2F2F"/>
            <stop offset="1" stop-color="#791919"/>
        </radialGradient>
        <radialGradient id="paint34_radial_565_5606" cx="0" cy="0" r="1" gradientUnits="userSpaceOnUse" gradientTransform="translate(315.881 71.769) rotate(90) scale(1.8881)">
            <stop stop-color="#BE2F2F"/>
            <stop offset="1" stop-color="#791919"/>
        </radialGradient>
        <radialGradient id="paint35_radial_565_5606" cx="0" cy="0" r="1" gradientUnits="userSpaceOnUse" gradientTransform="translate(325.321 71.769) rotate(90) scale(1.8881)">
            <stop stop-color="#BE2F2F"/>
            <stop offset="1" stop-color="#791919"/>
        </radialGradient>
        <radialGradient id="paint36_radial_565_5606" cx="0" cy="0" r="1" gradientUnits="userSpaceOnUse" gradientTransform="translate(325.321 79.3216) rotate(90) scale(1.8881)">
            <stop stop-color="#BE2F2F"/>
            <stop offset="1" stop-color="#791919"/>
        </radialGradient>
        <radialGradient id="paint37_radial_565_5606" cx="0" cy="0" r="1" gradientUnits="userSpaceOnUse" gradientTransform="translate(317.769 79.3216) rotate(90) scale(1.8881)">
            <stop stop-color="#BE2F2F"/>
            <stop offset="1" stop-color="#791919"/>
        </radialGradient>
        <radialGradient id="paint38_radial_565_5606" cx="0" cy="0" r="1" gradientUnits="userSpaceOnUse" gradientTransform="translate(321.545 73.6571) rotate(90) scale(1.8881)">
            <stop stop-color="#BE2F2F"/>
            <stop offset="1" stop-color="#791919"/>
        </radialGradient>
        <radialGradient id="paint39_radial_565_5606" cx="0" cy="0" r="1" gradientUnits="userSpaceOnUse" gradientTransform="translate(321.545 64.2168) rotate(90) scale(1.8881)">
            <stop stop-color="#BE2F2F"/>
            <stop offset="1" stop-color="#791919"/>
        </radialGradient>
        <linearGradient id="paint40_linear_565_5606" x1="249.839" y1="55.7751" x2="266.43" y2="78.523" gradientUnits="userSpaceOnUse">
            <stop stop-color="#6D2421"/>
            <stop offset="1" stop-color="#C82626"/>
        </linearGradient>
        <linearGradient id="paint41_linear_565_5606" x1="9" y1="9" x2="369" y2="159" gradientUnits="userSpaceOnUse">
            <stop stop-color="#E4E4E4"/>
            <stop offset="1" stop-color="#EFEFEF"/>
        </linearGradient>
    </defs>
<g filter="url(#filter0_d_565_5606)">
<mask id="mask0_565_5606" style="mask-type:alpha" maskUnits="userSpaceOnUse" x="9" y="9" width="360" height="150">
<rect x="9" y="9" width="360" height="150" rx="12" fill="#D9D9D9"/>
</mask>
<g mask="url(#mask0_565_5606)">
<path d="M9 9H369V159H9V9Z" fill="white"/>
<path d="M9 9H369V108H9V9Z" fill="#9AE3FF"/>
<path d="M9 9H369V108C369 108 227 63.5 138 91.5C49 119.5 9 84.3974 9 84.3974V9Z" fill="#7ACCEC"/>
<path d="M9 9H369V71.7912C369 71.7912 342.54 55.684 294.5 56.9496C229.5 58.6621 269 63.7996 177.5 71.7912C86 79.7828 9 45.5331 9 45.5331V9Z" fill="#63C3E3"/>
<path d="M9 9H369V33.4104C369 33.4104 342.5 46.778 294.5 45.9643C230.5 44.8794 176 26.1195 121.5 30.9694C67 35.8192 9 45.9643 9 45.9643V9Z" fill="#35B4E0"/>
<path d="M232.5 114.501C217.209 113.853 205.251 112.987 194.971 111.662C135.641 104.02 78.6777 73.2568 19.4759 81.8305C16.0746 82.3231 12.5853 82.9051 9 83.5874V159.001H123.538C159.152 151.703 232.5 133.696 232.5 114.501Z" fill="#5A7C32" fill-opacity="0.7"/>
<path d="M9 158.999V84.083C31.0598 89.9118 52.6212 98.126 67.663 101.563C122.315 114.049 174.189 103.281 219.5 87.4994C264 71.9998 339.919 75.5915 369 84.083V158.999H9Z" fill="#3A6339"/>
<path d="M9 159V115.5C79 137.5 106.5 139.193 133.5 136.5C172 132.661 194.942 95.0903 284.5 87.5004C314 85.0004 350 94.0002 369 100.5V159H9Z" fill="#5D7F35"/>
<path d="M9 159V106C77 124.5 99.3882 108.208 139.5 108C201.466 107.679 244.019 119.518 271.5 118.5C325.5 116.5 348.5 105 369 90.5V159H9Z" fill="#86A03D" fill-opacity="0.6"/>
<circle cx="29.6942" cy="134.753" r="2.32941" fill="url(#paint0_radial_565_5606)"/>
<path d="M44.6454 120.116C35.5026 121.062 32.7742 124.817 30.4503 133.019C30.2639 133.677 30.7938 134.318 31.4742 134.251C40.507 133.363 43.4977 129.865 45.6783 121.32C45.8447 120.668 45.3148 120.047 44.6454 120.116Z" fill="#5D7F35"/>
<path d="M30.8586 133.977C34.3688 128.869 36.546 126.38 41.7292 124.271L30.8586 133.977Z" fill="#00675B"/>
<path d="M27.5632 134.249C18.4203 133.303 15.6919 129.548 13.368 121.346C13.1817 120.688 13.7115 120.047 14.392 120.114C23.4248 121.002 26.4154 124.5 28.596 133.045C28.7624 133.697 28.2325 134.318 27.5632 134.249Z" fill="#5D7F35"/>
<path d="M13.7766 120.389C17.2868 125.497 19.4639 127.986 24.6472 130.095L13.7766 120.389Z" fill="#00675B"/>
<rect x="28.9177" y="136.306" width="1.55294" height="15.5294" rx="0.77647" fill="url(#paint1_radial_565_5606)"/>
<circle cx="69.7882" cy="121.907" r="3.45882" fill="url(#paint2_radial_565_5606)"/>
<path d="M92.6476 100.109C78.2966 101.423 74.2759 107.153 70.7281 119.985C70.5459 120.644 71.0723 121.283 71.7535 121.224C85.9246 119.993 90.3771 114.69 93.6837 101.318C93.8452 100.664 93.3178 100.047 92.6476 100.109Z" fill="#5D7F35"/>
<path d="M71.5176 120.754C76.7296 113.169 79.9624 109.474 87.6587 106.342L71.5176 120.754Z" fill="#00675B"/>
<path d="M67.2829 121.221C52.9319 119.907 48.9112 114.177 45.3634 101.345C45.1812 100.686 45.7076 100.047 46.3887 100.106C60.5599 101.337 65.0124 106.64 68.319 120.012C68.4805 120.666 67.953 121.283 67.2829 121.221Z" fill="#5D7F35"/>
<path d="M46.1531 100.577C51.3651 108.161 54.5979 111.857 62.2942 114.989L46.1531 100.577Z" fill="#00675B"/>
<rect x="68.6353" y="124.212" width="2.30588" height="23.0588" rx="1.15294" fill="url(#paint3_radial_565_5606)"/>
<circle cx="145.256" cy="120.367" r="8.26824" fill="url(#paint4_radial_565_5606)"/>
<path d="M201.764 68.1015C165.237 70.973 155.761 85.0903 146.996 117.63C146.818 118.29 147.358 118.94 148.04 118.889C184.084 116.208 194.719 103.244 202.819 69.3325C202.975 68.6779 202.435 68.0488 201.764 68.1015Z" fill="#5D7F35"/>
<path d="M149.39 117.61C161.849 99.4795 169.577 90.6453 187.975 83.1586L149.39 117.61Z" fill="#00675B"/>
<path d="M141.13 118.887C104.603 116.016 95.127 101.898 86.3624 69.3585C86.1846 68.6983 86.7244 68.049 87.4063 68.0997C123.45 70.7803 134.085 83.7442 142.185 117.656C142.341 118.311 141.801 118.94 141.13 118.887Z" fill="#5D7F35"/>
<path d="M88.7561 69.3796C101.215 87.5098 108.943 96.3439 127.341 103.831L88.7561 69.3796Z" fill="#00675B"/>
<path d="M142.5 128.634C142.5 127.112 143.733 125.878 145.256 125.878V125.878C146.778 125.878 148.012 127.112 148.012 128.634V151.744C148.012 153.266 146.778 154.5 145.256 154.5V154.5C143.733 154.5 142.5 153.266 142.5 151.744V128.634Z" fill="url(#paint5_radial_565_5606)"/>
<g filter="url(#filter1_b_565_5606)">
<path d="M162 9H357C363.627 9 369 14.3726 369 21V41H168C164.686 41 162 38.3137 162 35V9Z" fill="url(#paint6_linear_565_5606)"/>
<path d="M162.5 9.5H357C363.351 9.5 368.5 14.6487 368.5 21V40.5H168C164.962 40.5 162.5 38.0376 162.5 35V9.5Z" stroke="url(#paint7_linear_565_5606)"/>
</g>
<circle cx="172.492" cy="88.1814" r="4.3246" fill="url(#paint8_linear_565_5606)"/>
<circle cx="182.583" cy="93.9475" r="4.3246" fill="url(#paint9_linear_565_5606)"/>
<circle cx="172.492" cy="99.7134" r="5.76614" fill="url(#paint10_linear_565_5606)"/>
<circle cx="194.766" cy="76.7661" r="5.76614" fill="url(#paint11_linear_565_5606)"/>
<circle cx="176.096" cy="77.3698" r="2.1623" fill="url(#paint12_linear_565_5606)"/>
<circle cx="189.07" cy="84.5775" r="2.1623" fill="url(#paint13_linear_565_5606)"/>
<circle cx="180.421" cy="84.5775" r="2.1623" fill="url(#paint14_linear_565_5606)"/>
<circle cx="185.466" cy="78.0906" r="1.44153" fill="url(#paint15_linear_565_5606)"/>
<circle cx="165.284" cy="89.6227" r="1.44153" fill="url(#paint16_linear_565_5606)"/>
<circle cx="159.442" cy="102.442" r="1.44153" fill="url(#paint17_linear_565_5606)"/>
<circle cx="163.442" cy="99.4415" r="1.44153" fill="url(#paint18_linear_565_5606)"/>
<circle cx="163.122" cy="94.6682" r="2.1623" fill="url(#paint19_linear_565_5606)"/>
<circle cx="165.162" cy="105.162" r="2.1623" fill="url(#paint20_linear_565_5606)"/>
<path fill-rule="evenodd" clip-rule="evenodd" d="M215.756 102.892C228.449 95.2218 232.52 78.715 224.85 66.0227C217.18 53.3305 200.674 49.259 187.981 56.9289C175.289 64.5987 171.218 81.1055 178.888 93.7978C186.557 106.49 203.064 110.562 215.756 102.892ZM214.732 100.593C226.096 93.7255 229.741 78.9461 222.874 67.5821C216.007 56.2181 201.228 52.5728 189.864 59.44C178.5 66.3072 174.854 81.0865 181.721 92.4505C188.589 103.815 203.368 107.46 214.732 100.593Z" fill="#3E2B23"/>
<path fill-rule="evenodd" clip-rule="evenodd" d="M215.701 102.196C227.95 94.7939 231.88 78.863 224.478 66.6135C217.075 54.364 201.144 50.4345 188.895 57.8368C176.645 65.2392 172.716 81.1701 180.118 93.4196C187.52 105.669 203.451 109.599 215.701 102.196ZM214.712 99.9768C225.679 93.3491 229.198 79.0854 222.57 68.1178C215.942 57.1502 201.678 53.632 190.711 60.2596C179.743 66.8873 176.225 81.151 182.853 92.1186C189.48 103.086 203.744 106.604 214.712 99.9768Z" fill="#604B3B"/>
<g filter="url(#filter2_b_565_5606)">
<circle cx="202.726" cy="80.1212" r="23.1049" transform="rotate(-31.1444 202.726 80.1212)" fill="url(#paint21_linear_565_5606)"/>
<circle cx="202.726" cy="80.1212" r="22.6049" transform="rotate(-31.1444 202.726 80.1212)" stroke="url(#paint22_linear_565_5606)"/>
</g>
<rect x="221.152" y="99.7466" width="13.738" height="4.37119" rx="2" transform="rotate(-58.6448 221.152 99.7466)" fill="url(#paint23_linear_565_5606)"/>
<rect x="226.581" y="99.0704" width="6.8159" height="7.75803" rx="2" transform="rotate(-58.6448 226.581 99.0704)" fill="url(#paint24_linear_565_5606)"/>
<rect x="232.19" y="104.731" width="10.9959" height="50.6725" rx="2" transform="rotate(-58.6448 232.19 104.731)" fill="url(#paint25_linear_565_5606)"/>
<g filter="url(#filter3_d_565_5606)">
<rect x="297" y="51" width="47.1019" height="87" rx="7" fill="#848484"/>
<rect x="298.662" y="52.6623" width="43.7771" height="80.3503" rx="7" fill="#E6EAEB"/>
<circle cx="320.551" cy="135.507" r="1.93949" fill="#E1E1E1"/>
<circle cx="320.828" cy="55.4329" r="1.10828" fill="#848484"/>
<path d="M298.662 108.306C298.662 106.649 300.005 105.306 301.662 105.306H339.439C341.096 105.306 342.439 106.649 342.439 108.306V126.013C342.439 129.879 339.305 133.013 335.439 133.013H305.662C301.796 133.013 298.662 129.879 298.662 126.013V108.306Z" fill="#D6E0C7"/>
</g>
<rect x="303.095" y="72.0577" width="35.465" height="45.4395" rx="3" fill="white"/>
<rect x="306.44" y="100.09" width="30.2096" height="1.8881" fill="#DBDBDB"/>
<rect x="306.44" y="90.6503" width="30.2096" height="1.8881" fill="#DBDBDB"/>
<rect x="323.433" y="109.531" width="12.7452" height="1.66242" fill="#DBDBDB"/>
<circle cx="320.601" cy="74.6013" r="10.3845" fill="url(#paint26_radial_565_5606)"/>
<circle cx="313.993" cy="66.1049" r="1.8881" fill="url(#paint27_radial_565_5606)"/>
<circle cx="310.217" cy="73.6571" r="1.8881" fill="url(#paint28_radial_565_5606)"/>
<circle cx="312.105" cy="81.2097" r="1.8881" fill="url(#paint29_radial_565_5606)"/>
<circle cx="321.545" cy="84.9858" r="1.8881" fill="url(#paint30_radial_565_5606)"/>
<circle cx="329.098" cy="81.2097" r="1.8881" fill="url(#paint31_radial_565_5606)"/>
<circle cx="330.986" cy="73.6571" r="1.8881" fill="url(#paint32_radial_565_5606)"/>
<circle cx="327.21" cy="66.1049" r="1.8881" fill="url(#paint33_radial_565_5606)"/>
<circle cx="315.881" cy="71.769" r="1.8881" fill="url(#paint34_radial_565_5606)"/>
<circle cx="325.321" cy="71.769" r="1.8881" fill="url(#paint35_radial_565_5606)"/>
<circle cx="325.321" cy="79.3216" r="1.8881" fill="url(#paint36_radial_565_5606)"/>
<circle cx="317.769" cy="79.3216" r="1.8881" fill="url(#paint37_radial_565_5606)"/>
<circle cx="321.545" cy="73.6571" r="1.8881" fill="url(#paint38_radial_565_5606)"/>
<circle cx="321.545" cy="64.2168" r="1.8881" fill="url(#paint39_radial_565_5606)"/>
<rect x="306.44" y="103.867" width="30.2096" height="1.8881" fill="#DBDBDB"/>
<path d="M273.028 62.7621C262.626 53.949 243.354 60.4308 242.974 75.9316L245.044 78.121C245.437 62.0861 260.981 56.0481 271.914 64.8735L266.582 65.8125L279.185 71.4698L273.185 56.3471L273.028 62.7621Z" fill="white" stroke="url(#paint40_linear_565_5606)"/>
</g>
<rect x="10" y="10" width="358" height="148" rx="11" stroke="url(#paint41_linear_565_5606)" stroke-width="2"/>
</g>

</svg>
