<svg width="360" height="360" viewBox="0 0 360 360" fill="none" xmlns="http://www.w3.org/2000/svg">
    <defs>
        <filter id="filter0_d_583_5899" x="0" y="0" width="360" height="360" filterUnits="userSpaceOnUse" color-interpolation-filters="sRGB">
            <feFlood flood-opacity="0" result="BackgroundImageFix"/>
            <feColorMatrix in="SourceAlpha" type="matrix" values="0 0 0 0 0 0 0 0 0 0 0 0 0 0 0 0 0 0 127 0" result="hardAlpha"/>
            <feOffset dy="4"/>
            <feGaussianBlur stdDeviation="8"/>
            <feComposite in2="hardAlpha" operator="out"/>
            <feColorMatrix type="matrix" values="0 0 0 0 0.395833 0 0 0 0 0.350425 0 0 0 0 0.272135 0 0 0 0.15 0"/>
            <feBlend mode="normal" in2="BackgroundImageFix" result="effect1_dropShadow_583_5899"/>
            <feBlend mode="normal" in="SourceGraphic" in2="effect1_dropShadow_583_5899" result="shape"/>
        </filter>
        <filter id="filter1_d_583_5899" x="101.534" y="99.5342" width="166.932" height="170.116" filterUnits="userSpaceOnUse" color-interpolation-filters="sRGB">
            <feFlood flood-opacity="0" result="BackgroundImageFix"/>
            <feColorMatrix in="SourceAlpha" type="matrix" values="0 0 0 0 0 0 0 0 0 0 0 0 0 0 0 0 0 0 127 0" result="hardAlpha"/>
            <feOffset dx="5" dy="7"/>
            <feGaussianBlur stdDeviation="7.5"/>
            <feComposite in2="hardAlpha" operator="out"/>
            <feColorMatrix type="matrix" values="0 0 0 0 0.1625 0 0 0 0 0.1625 0 0 0 0 0.1625 0 0 0 0.2 0"/>
            <feBlend mode="normal" in2="BackgroundImageFix" result="effect1_dropShadow_583_5899"/>
            <feBlend mode="normal" in="SourceGraphic" in2="effect1_dropShadow_583_5899" result="shape"/>
        </filter>
    </defs>
<g filter="url(#filter0_d_583_5899)">
<circle cx="180" cy="176" r="164" fill="white"/>
</g>
<path d="M180.503 24.0732C264.688 24.0732 332.933 92.3182 332.933 176.503C332.933 176.503 248.057 204.795 180.503 176.503C112.949 148.211 28.0737 176.503 28.0737 176.503C28.0737 92.3182 96.3187 24.0732 180.503 24.0732Z" fill="#448CA5" fill-opacity="0.1"/>
<path d="M332.933 176.503C332.933 92.3182 264.688 24.0732 180.503 24.0732C96.3187 24.0732 28.0737 92.3182 28.0737 176.503C28.3697 188.889 29.1286 195.61 31.0921 207.693L85.4234 197.632C121.644 192.237 171.951 198.524 190.061 212.918C195.964 217.61 213.196 215.375 233.745 210.23C251.901 209.247 271.625 210.917 295.706 215.239C334.945 222.282 316.306 211.529 329.914 207.693C332.16 195.684 332.768 188.824 332.933 176.503Z" fill="#B6E5F7" fill-opacity="0.4"/>
<path d="M180.503 24.0732C96.3187 24.0732 28.0737 92.3182 28.0737 176.503C28.0737 176.503 112.949 204.795 180.503 176.503C248.057 148.211 332.933 176.503 332.933 176.503C332.933 92.3182 264.688 24.0732 180.503 24.0732Z" fill="#7ED0E8" fill-opacity="0.01"/>
<path d="M160.531 80.7776C126.696 111.415 46.1729 104.937 46.1729 104.937C39.4932 117.469 34.5125 131.043 31.5381 145.354C31.5381 145.354 129.59 117.485 180.776 145.354C232.741 173.645 330.014 145.354 330.014 145.354C322.578 109.578 302.602 78.3986 274.89 56.6184C274.89 56.6184 202.717 42.5792 160.531 80.7776Z" fill="#448CA5" fill-opacity="0.1"/>
<path d="M315.379 247.97C315.379 247.97 234.856 241.492 201.021 272.129C158.836 310.328 86.6626 296.288 86.6626 296.288C71.4586 284.339 58.5833 269.56 48.83 252.746C40.8057 238.912 34.8946 223.701 31.5382 207.553C31.5382 207.553 128.812 179.261 180.776 207.553C231.963 235.421 330.014 207.553 330.014 207.553C328.775 213.514 327.188 219.348 325.275 225.031C322.595 232.992 319.276 240.658 315.379 247.97Z" fill="#86A03D" fill-opacity="0.6"/>
<path d="M201.597 272.13C239.365 240.622 315.955 247.971 315.955 247.971C319.852 240.659 323.171 232.993 325.851 225.032C325.851 225.032 230.127 247.971 187.628 238.889C145.129 229.808 49.4057 252.747 49.4057 252.747C59.1591 269.561 72.0344 284.34 87.2383 296.289C87.2383 296.289 155.644 310.466 201.597 272.13Z" fill="#618237" fill-opacity="0.01"/>
<path d="M35.7846 222.722C55.3896 284.259 113.014 328.832 181.049 328.832C249.084 328.832 306.709 284.259 326.313 222.722C326.313 222.722 238.788 193.853 181.049 222.722C123.311 251.591 35.7846 222.722 35.7846 222.722Z" fill="#5A7C32" fill-opacity="0.7"/>
<g filter="url(#filter1_d_583_5899)">
<path d="M111.534 129.087C111.534 122.46 116.907 117.087 123.534 117.087H236.466C243.094 117.087 248.466 122.46 248.466 129.087V235.651C248.466 242.278 243.094 247.651 236.466 247.651H123.534C116.907 247.651 111.534 242.278 111.534 235.651V129.087Z" fill="#F9F4C9"/>
<path d="M111.534 129.087C111.534 122.46 116.907 117.087 123.534 117.087H236.466C243.094 117.087 248.466 122.46 248.466 129.087V148.932H111.534V129.087Z" fill="#BE2D0E"/>
<rect x="143.379" y="168.039" width="9.5534" height="9.5534" fill="#D9D9D9"/>
<rect x="143.379" y="183.961" width="9.5534" height="9.5534" fill="#D9D9D9"/>
<rect x="143.379" y="199.884" width="9.5534" height="9.5534" fill="#D9D9D9"/>
<rect x="121.087" y="183.961" width="9.5534" height="9.5534" fill="#D9D9D9"/>
<rect x="121.087" y="199.884" width="9.5534" height="9.5534" fill="#D9D9D9"/>
<rect x="165.67" y="168.039" width="9.5534" height="9.5534" fill="#D9D9D9"/>
<rect x="165.67" y="183.961" width="9.5534" height="9.5534" fill="#D9D9D9"/>
<rect x="165.67" y="199.884" width="9.5534" height="9.5534" fill="#D9D9D9"/>
<rect x="187.961" y="168.039" width="9.5534" height="9.5534" fill="#D9D9D9"/>
<rect x="187.961" y="183.961" width="9.5534" height="9.5534" fill="#BE2D0E"/>
<rect x="187.961" y="199.884" width="9.5534" height="9.5534" fill="#D9D9D9"/>
<rect x="210.252" y="168.039" width="9.5534" height="9.5534" fill="#D9D9D9"/>
<rect x="210.252" y="183.961" width="9.5534" height="9.5534" fill="#D9D9D9"/>
<rect x="210.252" y="199.884" width="9.5534" height="9.5534" fill="#D9D9D9"/>
<rect x="121.087" y="215.806" width="9.5534" height="9.5534" fill="#BE2D0E"/>
<rect x="232.544" y="168.039" width="9.5534" height="9.5534" fill="#D9D9D9"/>
<rect x="232.544" y="183.961" width="9.5534" height="9.5534" fill="#D9D9D9"/>
<rect x="232.544" y="199.884" width="9.5534" height="9.5534" fill="#D9D9D9"/>
<rect x="143.379" y="215.806" width="9.5534" height="9.5534" fill="#D9D9D9"/>
<rect x="165.67" y="215.806" width="9.5534" height="9.5534" fill="#D9D9D9"/>
<rect x="133.826" y="107.534" width="6.36893" height="22.2913" rx="3.18447" fill="#F2F2F2"/>
<rect x="156.117" y="107.534" width="6.36893" height="22.2913" rx="3.18447" fill="#F2F2F2"/>
<rect x="178.408" y="107.534" width="6.36893" height="22.2913" rx="3.18447" fill="#F2F2F2"/>
<rect x="200.699" y="107.534" width="6.36893" height="22.2913" rx="3.18447" fill="#F2F2F2"/>
<rect x="222.991" y="107.534" width="6.36893" height="22.2913" rx="3.18447" fill="#F2F2F2"/>
</g>

</svg>
