<svg width="358" height="359" viewBox="0 0 358 359" fill="none" xmlns="http://www.w3.org/2000/svg">
    <defs>
        <filter id="filter0_d_583_4222" x="0" y="0.921875" width="358" height="358" filterUnits="userSpaceOnUse" color-interpolation-filters="sRGB">
            <feFlood flood-opacity="0" result="BackgroundImageFix"/>
            <feColorMatrix in="SourceAlpha" type="matrix" values="0 0 0 0 0 0 0 0 0 0 0 0 0 0 0 0 0 0 127 0" result="hardAlpha"/>
            <feOffset dy="4"/>
            <feGaussianBlur stdDeviation="8"/>
            <feComposite in2="hardAlpha" operator="out"/>
            <feColorMatrix type="matrix" values="0 0 0 0 0.395833 0 0 0 0 0.350425 0 0 0 0 0.272135 0 0 0 0.15 0"/>
            <feBlend mode="normal" in2="BackgroundImageFix" result="effect1_dropShadow_583_4222"/>
            <feBlend mode="normal" in="SourceGraphic" in2="effect1_dropShadow_583_4222" result="shape"/>
        </filter>
        <filter id="filter1_d_583_4222" x="195" y="170.922" width="65.8594" height="132.5" filterUnits="userSpaceOnUse" color-interpolation-filters="sRGB">
            <feFlood flood-opacity="0" result="BackgroundImageFix"/>
            <feColorMatrix in="SourceAlpha" type="matrix" values="0 0 0 0 0 0 0 0 0 0 0 0 0 0 0 0 0 0 127 0" result="hardAlpha"/>
            <feOffset dx="5" dy="5"/>
            <feGaussianBlur stdDeviation="3.5"/>
            <feComposite in2="hardAlpha" operator="out"/>
            <feColorMatrix type="matrix" values="0 0 0 0 0.189977 0 0 0 0 0.254167 0 0 0 0 0.115434 0 0 0 0.25 0"/>
            <feBlend mode="normal" in2="BackgroundImageFix" result="effect1_dropShadow_583_4222"/>
            <feBlend mode="normal" in="SourceGraphic" in2="effect1_dropShadow_583_4222" result="shape"/>
        </filter>
        <filter id="filter2_d_583_4222" x="153.034" y="184.922" width="43.6943" height="82.5" filterUnits="userSpaceOnUse" color-interpolation-filters="sRGB">
            <feFlood flood-opacity="0" result="BackgroundImageFix"/>
            <feColorMatrix in="SourceAlpha" type="matrix" values="0 0 0 0 0 0 0 0 0 0 0 0 0 0 0 0 0 0 127 0" result="hardAlpha"/>
            <feOffset dx="5" dy="5"/>
            <feGaussianBlur stdDeviation="3.5"/>
            <feComposite in2="hardAlpha" operator="out"/>
            <feColorMatrix type="matrix" values="0 0 0 0 0.189977 0 0 0 0 0.254167 0 0 0 0 0.115434 0 0 0 0.25 0"/>
            <feBlend mode="normal" in2="BackgroundImageFix" result="effect1_dropShadow_583_4222"/>
            <feBlend mode="normal" in="SourceGraphic" in2="effect1_dropShadow_583_4222" result="shape"/>
        </filter>
        <filter id="filter3_d_583_4222" x="259.034" y="184.922" width="43.6943" height="82.5" filterUnits="userSpaceOnUse" color-interpolation-filters="sRGB">
            <feFlood flood-opacity="0" result="BackgroundImageFix"/>
            <feColorMatrix in="SourceAlpha" type="matrix" values="0 0 0 0 0 0 0 0 0 0 0 0 0 0 0 0 0 0 127 0" result="hardAlpha"/>
            <feOffset dx="5" dy="5"/>
            <feGaussianBlur stdDeviation="3.5"/>
            <feComposite in2="hardAlpha" operator="out"/>
            <feColorMatrix type="matrix" values="0 0 0 0 0.189977 0 0 0 0 0.254167 0 0 0 0 0.115434 0 0 0 0.25 0"/>
            <feBlend mode="normal" in2="BackgroundImageFix" result="effect1_dropShadow_583_4222"/>
            <feBlend mode="normal" in="SourceGraphic" in2="effect1_dropShadow_583_4222" result="shape"/>
        </filter>
        <filter id="filter4_d_583_4222" x="150.888" y="29.082" width="123.943" height="100.562" filterUnits="userSpaceOnUse" color-interpolation-filters="sRGB">
            <feFlood flood-opacity="0" result="BackgroundImageFix"/>
            <feColorMatrix in="SourceAlpha" type="matrix" values="0 0 0 0 0 0 0 0 0 0 0 0 0 0 0 0 0 0 127 0" result="hardAlpha"/>
            <feOffset dx="3" dy="3"/>
            <feGaussianBlur stdDeviation="6"/>
            <feComposite in2="hardAlpha" operator="out"/>
            <feColorMatrix type="matrix" values="0 0 0 0 0.170208 0 0 0 0 0.213275 0 0 0 0 0.2375 0 0 0 0.2 0"/>
            <feBlend mode="normal" in2="BackgroundImageFix" result="effect1_dropShadow_583_4222"/>
            <feBlend mode="normal" in="SourceGraphic" in2="effect1_dropShadow_583_4222" result="shape"/>
        </filter>
        <filter id="filter5_d_583_4222" x="63" y="111.922" width="72" height="126.212" filterUnits="userSpaceOnUse" color-interpolation-filters="sRGB">
            <feFlood flood-opacity="0" result="BackgroundImageFix"/>
            <feColorMatrix in="SourceAlpha" type="matrix" values="0 0 0 0 0 0 0 0 0 0 0 0 0 0 0 0 0 0 127 0" result="hardAlpha"/>
            <feOffset dx="2" dy="2"/>
            <feGaussianBlur stdDeviation="2"/>
            <feComposite in2="hardAlpha" operator="out"/>
            <feColorMatrix type="matrix" values="0 0 0 0 0.1625 0 0 0 0 0.1625 0 0 0 0 0.1625 0 0 0 0.2 0"/>
            <feBlend mode="normal" in2="BackgroundImageFix" result="effect1_dropShadow_583_4222"/>
            <feBlend mode="normal" in="SourceGraphic" in2="effect1_dropShadow_583_4222" result="shape"/>
        </filter>
    </defs>
<g filter="url(#filter0_d_583_4222)">
<circle cx="179" cy="175.922" r="163" fill="white"/>
</g>
<path d="M178.5 24.9219C262.171 24.9219 330 92.7507 330 176.422C330 176.422 245.642 204.541 178.5 176.422C111.358 148.303 27 176.422 27 176.422C27 92.7507 94.8289 24.9219 178.5 24.9219Z" fill="#448CA5" fill-opacity="0.1"/>
<path d="M330 176.422C330 92.7507 262.171 24.9219 178.5 24.9219C94.8289 24.9219 27 92.7507 27 176.422C27.2942 188.732 28.0485 195.413 30 207.422L84 197.422C120 192.06 170 198.308 188 212.615C193.867 217.278 210.993 215.057 231.417 209.943C249.463 208.966 269.066 210.626 293 214.922C332 221.922 313.475 211.234 327 207.422C329.232 195.486 329.836 188.668 330 176.422Z" fill="#B6E5F7" fill-opacity="0.4"/>
<path d="M178.5 24.9219C94.8289 24.9219 27 92.7507 27 176.422C27 176.422 111.358 204.541 178.5 176.422C245.642 148.303 330 176.422 330 176.422C330 92.7507 262.171 24.9219 178.5 24.9219Z" fill="#7ED0E8" fill-opacity="0.01"/>
<path d="M158.65 81.2794C125.021 111.73 44.989 105.291 44.989 105.291C38.35 117.747 33.3996 131.239 30.4434 145.462C30.4434 145.462 127.897 117.763 178.771 145.462C230.419 173.581 327.099 145.462 327.099 145.462C319.709 109.904 299.855 78.915 272.311 57.2676C272.311 57.2676 200.578 43.314 158.65 81.2794Z" fill="#448CA5" fill-opacity="0.1"/>
<path d="M312.554 247.453C312.554 247.453 232.522 241.014 198.893 271.465C156.965 309.43 85.2319 295.476 85.2319 295.476C70.1206 283.6 57.3238 268.912 47.6299 252.2C39.6546 238.451 33.7795 223.332 30.4436 207.282C30.4436 207.282 127.124 179.163 178.772 207.282C229.646 234.981 327.1 207.282 327.1 207.282C325.868 213.207 324.291 219.005 322.389 224.654C319.726 232.566 316.427 240.186 312.554 247.453Z" fill="#86A03D" fill-opacity="0.6"/>
<path d="M199.465 271.465C237.003 240.149 313.126 247.453 313.126 247.453C317 240.186 320.298 232.567 322.961 224.655C322.961 224.655 227.821 247.453 185.582 238.427C143.342 229.401 48.2022 252.2 48.2022 252.2C57.8961 268.912 70.6929 283.601 85.8042 295.477C85.8042 295.477 153.793 309.567 199.465 271.465Z" fill="#618237" fill-opacity="0.01"/>
<path d="M34.6641 222.359C54.1495 283.521 111.423 327.822 179.043 327.822C246.663 327.822 303.936 283.521 323.421 222.359C323.421 222.359 236.429 193.666 179.043 222.359C121.656 251.052 34.6641 222.359 34.6641 222.359Z" fill="#5A7C32" fill-opacity="0.7"/>
<g filter="url(#filter1_d_583_4222)">
<ellipse cx="222.534" cy="218.553" rx="18.9908" ry="45.6307" fill="#FEDE91"/>
<ellipse cx="223.892" cy="216.808" rx="15.2982" ry="34.0252" transform="rotate(8.84706 223.892 216.808)" fill="#EAC773"/>
<path d="M246.109 186.424C248.348 190.43 249.047 194.881 248.818 201.245C248.777 202.381 247.256 202.496 247.004 201.387L245.218 193.496C244.163 190.067 241.539 190.699 241.789 194.023C244.426 229.103 240.47 259.7 224.908 262.601C218.05 263.88 214.094 258.908 211.456 252.314C225.878 230.29 232.818 214.076 239.979 187.692C240.795 184.688 244.59 183.706 246.109 186.424Z" fill="#5D7F35"/>
<path d="M199.75 189.325C197.512 193.331 196.812 197.782 197.041 204.147C197.082 205.283 198.604 205.397 198.855 204.289L200.642 196.397C201.697 192.968 204.32 193.6 204.071 196.924C201.433 232.005 206.181 261.546 221.743 264.447C228.6 265.726 233.876 258.908 234.403 255.216C219.981 233.191 213.042 216.977 205.88 190.594C205.065 187.589 201.269 186.607 199.75 189.325Z" fill="#00675B"/>
<path d="M224.117 265.238L224.117 287.922" stroke="#5D7F35" stroke-width="7" stroke-linecap="round"/>
</g>
<g filter="url(#filter2_d_583_4222)">
<ellipse cx="169.654" cy="213.11" rx="10.8991" ry="26.1881" fill="#FEDE91"/>
<ellipse cx="170.434" cy="212.109" rx="8.77982" ry="19.5275" transform="rotate(8.84706 170.434 212.109)" fill="#EAC773"/>
<path d="M184.29 197.468C184.525 198.4 184.665 199.405 184.726 200.52C184.788 201.655 183.362 201.774 183.111 200.665L182.673 198.729C182.067 196.762 180.561 197.124 180.705 199.032C182.218 219.165 179.948 236.725 171.017 238.39C167.081 239.124 164.81 236.271 163.296 232.486C171.031 220.675 175.015 211.776 178.858 198.306C179.712 195.312 183.529 194.45 184.29 197.468Z" fill="#5D7F35"/>
<path d="M155.472 199.133C155.237 200.065 155.097 201.07 155.036 202.185C154.974 203.32 156.401 203.439 156.652 202.33L157.09 200.394C157.696 198.427 159.201 198.789 159.058 200.697C157.544 220.83 160.269 237.784 169.2 239.45C173.136 240.183 176.163 236.271 176.466 234.151C168.732 222.34 164.748 213.441 160.905 199.971C160.051 196.977 156.234 196.115 155.472 199.133Z" fill="#00675B"/>
<path d="M170.562 239.903L170.563 252.922" stroke="#5D7F35" stroke-width="5" stroke-linecap="round"/>
</g>
<g filter="url(#filter3_d_583_4222)">
<ellipse cx="275.654" cy="213.11" rx="10.8991" ry="26.1881" fill="#FEDE91"/>
<ellipse cx="276.434" cy="212.109" rx="8.77982" ry="19.5275" transform="rotate(8.84706 276.434 212.109)" fill="#EAC773"/>
<path d="M290.29 197.468C290.525 198.4 290.665 199.405 290.726 200.52C290.788 201.655 289.362 201.774 289.111 200.665L288.673 198.729C288.067 196.762 286.561 197.124 286.705 199.032C288.218 219.165 285.948 236.725 277.017 238.39C273.081 239.124 270.81 236.271 269.296 232.486C277.031 220.675 281.015 211.776 284.858 198.306C285.712 195.312 289.529 194.45 290.29 197.468Z" fill="#5D7F35"/>
<path d="M261.472 199.133C261.237 200.065 261.097 201.07 261.036 202.185C260.974 203.32 262.401 203.439 262.652 202.33L263.09 200.394C263.696 198.427 265.201 198.789 265.058 200.697C263.544 220.83 266.269 237.784 275.2 239.45C279.136 240.183 282.163 236.271 282.466 234.151C274.732 222.34 270.748 213.441 266.905 199.971C266.051 196.977 262.234 196.115 261.472 199.133Z" fill="#00675B"/>
<path d="M276.562 239.903L276.563 252.922" stroke="#5D7F35" stroke-width="5" stroke-linecap="round"/>
</g>
<g filter="url(#filter4_d_583_4222)">
<path d="M216.342 98.7102L213.279 93.3302C213.083 92.9874 212.701 92.7923 212.308 92.8273C202.262 93.7216 197.216 92.0786 189.35 87.7062C188.984 87.5028 188.528 87.5451 188.209 87.8162L183.42 91.8863C183.003 92.2405 182.944 92.8652 183.337 93.2461C189.602 99.3283 208.758 102.22 215.874 100.032C216.432 99.8602 216.631 99.2174 216.342 98.7102Z" fill="#96A6B5"/>
<ellipse cx="208.175" cy="63.0639" rx="16.8318" ry="14.9752" transform="rotate(-163.652 208.175 63.0639)" fill="#5C6F80"/>
<path d="M206.486 79.2827L209.906 62.8622C209.094 61.6221 208.41 61.4796 207.169 62.2922L206.885 63.6604L203.749 78.7126L206.486 79.2827Z" fill="#8D9AA5"/>
<circle cx="204.832" cy="80.3663" r="4.4418" transform="rotate(146.767 204.832 80.3663)" fill="#5C6F80" stroke="#8D9AA5"/>
<path d="M222.18 110.449L219.264 106C219.037 105.653 218.612 105.484 218.207 105.57C199.629 109.501 190.834 106.523 177.595 96.086C177.256 95.8186 176.779 95.7926 176.418 96.0292L172.288 98.735C171.75 99.0876 171.687 99.8558 172.156 100.296C188.069 115.202 199.436 117.338 221.577 111.964C222.245 111.802 222.557 111.024 222.18 110.449Z" fill="#96A6B5"/>
<path d="M161.434 57.0482L188.707 62.7293C189.322 62.8575 189.9 62.391 189.932 61.7632C190.191 56.6993 191.668 54.2361 195.099 50.7864C195.253 50.6314 195.355 50.4298 195.385 50.2134L195.936 46.2709C196.009 45.7495 195.665 45.2609 195.149 45.1536L164.906 38.8536C164.358 38.7395 163.823 39.0972 163.719 39.6471L160.656 55.8838C160.555 56.4193 160.901 56.9371 161.434 57.0482Z" fill="#D9D9D9" stroke="#5C6F80" stroke-width="1.5"/>
<rect x="186.326" y="61.4897" width="5.27502" height="17.046" transform="rotate(-168.233 186.326 61.4897)" fill="#5C6F80"/>
<rect x="177.559" y="59.8379" width="5.27502" height="17.7497" transform="rotate(-168.233 177.559 59.8379)" fill="#5C6F80"/>
<rect x="168.537" y="57.7842" width="5.27502" height="17.046" transform="rotate(-168.233 168.537 57.7842)" fill="#5C6F80"/>
<path d="M254.202 76.73L226.93 71.0488C226.314 70.9206 225.971 70.2622 226.192 69.6738C227.976 64.9276 227.606 62.0796 225.838 57.5469C225.758 57.3433 225.746 57.1179 225.804 56.9073L226.874 53.0729C227.015 52.5658 227.525 52.2551 228.041 52.3625L258.284 58.6625C258.832 58.7766 259.18 59.3182 259.055 59.8638L255.381 75.9733C255.26 76.5046 254.736 76.8411 254.202 76.73Z" fill="#D9D9D9" stroke="#5C6F80" stroke-width="1.5"/>
<rect width="5.27502" height="17.046" transform="matrix(0.978985 0.203932 0.203932 -0.978985 229.607 70.8633)" fill="#5C6F80"/>
<rect width="5.27502" height="17.7497" transform="matrix(0.978985 0.203932 0.203932 -0.978985 238.305 72.8486)" fill="#5C6F80"/>
<rect width="5.27502" height="17.046" transform="matrix(0.978985 0.203932 0.203932 -0.978985 247.396 74.5688)" fill="#5C6F80"/>
<path d="M200.571 47.7095C208.884 45.0652 213.387 46.0743 221.097 51.9852C220.603 45.9134 217.997 41.8461 212.828 40.2695C208.398 38.9182 203.031 42.1049 200.571 47.7095Z" fill="#5C6F80"/>
</g>
<g filter="url(#filter5_d_583_4222)">
<rect x="65" y="113.922" width="64" height="118.212" rx="9" fill="#848484"/>
<rect x="67.2588" y="116.181" width="59.4824" height="109.176" rx="9" fill="#E6EAEB"/>
<circle cx="97" cy="228.746" r="2.63529" fill="#E1E1E1"/>
<circle cx="97.3765" cy="119.945" r="1.50588" fill="#848484"/>
<path d="M67.2588 193.71C67.2588 190.396 69.9451 187.71 73.2588 187.71H120.741C124.055 187.71 126.741 190.396 126.741 193.71V216.357C126.741 221.328 122.712 225.357 117.741 225.357H76.2588C71.2882 225.357 67.2588 221.328 67.2588 216.357V193.71Z" fill="#D6E0C7"/>
</g>
<rect x="73.2822" y="142.534" width="48.1882" height="61.7412" rx="9" fill="white"/>
<rect x="84.5767" y="154.581" width="32.3765" height="3.76471" fill="#DBDBDB"/>
<rect x="77.0469" y="164.369" width="39.9059" height="2.25882" fill="#DBDBDB"/>
<rect x="77.0469" y="168.887" width="39.9059" height="2.25882" fill="#DBDBDB"/>
<rect x="77.0469" y="173.404" width="39.9059" height="2.25882" fill="#DBDBDB"/>
<rect x="77.0469" y="179.428" width="39.9059" height="2.25882" fill="#DBDBDB"/>
<rect x="77.0469" y="183.192" width="39.9059" height="2.25882" fill="#DBDBDB"/>
<rect x="99.6353" y="189.969" width="17.3176" height="2.25882" fill="#DBDBDB"/>

</svg>
